<!-- <svg width="2000" height="1500" viewBox="0 0 3854 3107" fill="none" xmlns="http://www.w3.org/2000/svg">
<path fill-rule="evenodd" clip-rule="evenodd" d="M257.703 1287.17C67.9711 1685.94 -130.187 2102.42 112.649 2468.33C407.739 2912.97 1063.76 3072 1670.08 3103.17C2251.08 3133.04 2818.75 2973.45 3230.14 2628.59C3567.31 2345.95 3819.7 1976.58 3850.77 1589H3852.32V1566.59C3854.54 1528.34 3854.58 1489.93 3852.32 1451.42V3.00016H1680.3C1517.7 -7.04208 1355.4 8.84389 1196.58 61.8541C739.122 214.543 555.873 626.514 382.128 1017.12C369.173 1046.24 356.272 1075.25 343.313 1104.01C316.079 1164.48 286.991 1225.61 257.703 1287.17Z" fill="#6366F1"/>
</svg>
 -->

<svg xmlns="http://www.w3.org/2000/svg" width="814" height="814"><rect width="436" height="970" x="774" y="-62" fill="#ec4899" fill-rule="evenodd" rx="218" transform="rotate(45 718.814 -291.157)"/></svg>