<svg width="961" height="708" viewBox="0 0 961 708" fill="none" xmlns="http://www.w3.org/2000/svg">
<path d="M466.227 699.58L18.6878 407.595C4.42966 398.654 -7.7762 384.259 6.10392 374.811L455.263 88.9949C462.015 84.3753 472.249 81.3652 479.081 85.7463L948.953 386.762C963.211 395.882 965.749 421.424 951.491 430.544L525.231 699.104C516.286 704.849 506.136 707.915 495.787 707.998C485.437 708.082 475.248 705.18 466.227 699.58Z" fill="#6C63FF"/>
<path opacity="0.32" d="M509.981 588.769L598.322 645.018L734.456 552.908L641.763 494.08" fill="url(#paint0_linear_324_1124)"/>
<path d="M277.08 23.2704C278.036 23.2704 278.953 22.8993 279.629 22.2386C280.304 21.578 280.684 20.682 280.684 19.7477C280.684 18.8135 280.304 17.9175 279.629 17.2569C278.953 16.5962 278.036 16.2251 277.08 16.2251C276.125 16.2251 275.208 16.5962 274.532 17.2569C273.856 17.9175 273.477 18.8135 273.477 19.7477C273.477 20.682 273.856 21.578 274.532 22.2386C275.208 22.8993 276.125 23.2704 277.08 23.2704Z" fill="#E6E6E6"/>
<path d="M316.541 384.635L318.566 385.948L520.098 515.798L525.661 507.324L542.322 502.848L542.403 495.568L559.416 491.868L563.062 484.23L575.159 482.947L580.749 472.952L590.012 470.684L596.277 463.046L610.265 460.749L616.53 450.217L414.107 322.396L404.574 320.337L402.117 330.034L396.041 324.813L391.531 334.599H382.971L380.891 343.58L369.766 344.803L368.902 351.218L357.776 353.665L355.075 361.602L346.974 360.11L343.95 369.031L331.663 366.853L330.313 373.745L321.32 376.967" fill="white"/>
<path d="M688.941 529.914V537.515L685.837 533.715L688.941 529.914Z" fill="#756373"/>
<path d="M359.987 478.877V488.65L366.194 483.396L359.987 478.877Z" fill="#756373"/>
<path d="M364.966 497.848L554.01 616.877C557.267 618.951 560.965 620.043 564.729 620.043C568.493 620.043 572.191 618.951 575.448 616.877L684.068 546.903C685.55 545.962 686.78 544.608 687.635 542.978C688.491 541.348 688.941 539.5 688.941 537.618C688.941 535.737 688.491 533.888 687.635 532.259C686.78 530.629 685.55 529.275 684.068 528.333L494.212 407.818C491.369 405.997 488.137 405.037 484.845 405.037C481.554 405.037 478.322 405.997 475.478 407.818L364.993 479.129C363.478 480.058 362.215 481.414 361.335 483.057C360.455 484.701 359.99 486.573 359.987 488.48C359.985 490.387 360.444 492.26 361.319 493.907C362.195 495.553 363.453 496.914 364.966 497.848Z" fill="#513F2C"/>
<path d="M365.062 488.611L554.05 608.176C557.306 610.259 561.003 611.356 564.766 611.356C568.529 611.356 572.225 610.259 575.481 608.176L684.069 537.888C685.551 536.941 686.781 535.582 687.636 533.944C688.491 532.307 688.941 530.451 688.941 528.561C688.941 526.671 688.491 524.814 687.636 523.177C686.781 521.54 685.551 520.18 684.069 519.234L494.27 398.058C491.428 396.228 488.196 395.264 484.906 395.264C481.616 395.264 478.384 396.228 475.542 398.058L365.089 469.689C363.548 470.613 362.261 471.978 361.363 473.642C360.465 475.305 359.99 477.205 359.987 479.141C359.985 481.078 360.454 482.979 361.347 484.646C362.241 486.312 363.524 487.682 365.062 488.611Z" fill="#414141"/>
<path d="M386.128 478.704L420.115 499.789C420.927 500.316 421.861 500.595 422.813 500.595C423.765 500.595 424.699 500.316 425.512 499.789L444.443 487.044C444.872 486.762 445.226 486.369 445.472 485.901C445.717 485.434 445.846 484.907 445.846 484.372C445.846 483.836 445.717 483.31 445.472 482.842C445.226 482.374 444.872 481.981 444.443 481.699L408.823 459.968C408.078 459.514 407.227 459.294 406.369 459.336C405.511 459.378 404.682 459.678 403.979 460.203L386.017 473.565C385.635 473.864 385.326 474.256 385.117 474.709C384.907 475.161 384.804 475.661 384.815 476.165C384.826 476.669 384.951 477.162 385.179 477.604C385.408 478.046 385.733 478.423 386.128 478.704Z" fill="white"/>
<path d="M547.222 573.35C556.934 573.35 564.807 567.273 564.807 559.776C564.807 552.28 556.934 546.203 547.222 546.203C537.51 546.203 529.636 552.28 529.636 559.776C529.636 567.273 537.51 573.35 547.222 573.35Z" fill="#FF4700"/>
<path d="M565.842 584.209C575.554 584.209 583.427 578.132 583.427 570.635C583.427 563.139 575.554 557.062 565.842 557.062C556.13 557.062 548.256 563.139 548.256 570.635C548.256 578.132 556.13 584.209 565.842 584.209Z" fill="#FFDF24"/>
<path d="M423.088 431.169L637.228 567.92L670.321 546.631L453.435 411.552L423.088 431.169Z" fill="#1E1E1E"/>
<path opacity="0.32" d="M869.663 474.534C886.757 461.308 904.858 449.758 923.76 440.015L827.301 395.264L795.489 421.011C817.908 436.942 840.408 452.695 862.558 469.014C864.953 470.894 867.295 472.594 869.663 474.534Z" fill="url(#paint1_linear_324_1124)"/>
<path d="M851.167 330.503C850.985 329.677 850.649 328.9 850.179 328.223C849.318 327.074 848.29 326.086 847.138 325.3C831.637 313.812 810.161 310.684 793.78 321.88C790.044 324.452 784.469 330.269 786.683 335.765C787.963 338.952 791.859 340.822 794.687 342.109C803.7 346.021 813.117 348.711 822.727 350.118C826.195 350.761 829.716 351.405 833.211 351.755C835.629 352.01 838.067 351.595 840.3 350.548C842.533 349.501 844.49 347.855 845.991 345.763C848.365 342.372 852.234 335.502 851.167 330.503Z" fill="#754C24"/>
<path d="M786.179 333.853C786.179 333.853 800.375 348.025 824.911 345.958C849.447 343.892 851.349 331.196 851.349 331.196C851.349 331.196 845.001 420.832 841.652 422.367C838.304 423.902 825.768 430.575 819.715 431.077C813.661 431.579 794.536 423.135 794.054 420.802C793.572 418.47 786.179 333.853 786.179 333.853Z" fill="#FF8F6F"/>
<path d="M789.765 202.725C788.987 201.026 786.569 202.516 787.375 204.214C804.796 241.87 808.185 284.263 811.325 325.434C811.464 327.311 814.242 327.341 814.103 325.434C810.908 283.697 807.407 240.887 789.765 202.725Z" fill="#007F68"/>
<path d="M787.486 201.976C787.486 201.976 792.482 221.803 787.314 231.716C782.147 241.629 777.893 243.594 784.06 255.895C790.226 268.196 806.728 269.859 807.813 279.289C808.898 288.718 799.905 218.841 787.486 201.976Z" fill="#007F68"/>
<path d="M843.204 237.638C830.012 267.409 822.577 299.767 821.35 332.74C821.35 335.04 824.6 335.01 824.682 332.74C825.84 300.394 833.081 268.64 845.963 239.407C846.974 237.372 844.106 235.574 843.204 237.638Z" fill="#007F68"/>
<path d="M844.94 247.101C844.94 245.129 844.525 241.126 844.719 237.81L842.782 239.124C836.199 256.421 826.351 297.051 823.419 309.478C827.43 300.157 843.834 298.873 848.647 285.579C850.771 279.936 850.869 273.64 848.923 267.923C846.549 261.264 845.204 254.23 844.94 247.101Z" fill="#007F68"/>
<path opacity="0.32" d="M128.271 424.08L219.42 478.877L407.572 358.423L321.868 305.135" fill="url(#paint2_linear_324_1124)"/>
<path d="M123.099 286.93V414.798C123.104 416.719 123.566 418.605 124.438 420.264C125.309 421.923 126.56 423.297 128.064 424.246C129.567 425.195 131.269 425.686 132.998 425.668C134.727 425.651 136.42 425.126 137.908 424.147L308.653 311.183C310.11 310.218 311.316 308.849 312.155 307.21C312.993 305.572 313.435 303.72 313.437 301.835V171.607C313.436 169.689 312.98 167.806 312.115 166.147C311.25 164.488 310.006 163.112 308.509 162.158C307.013 161.203 305.316 160.705 303.591 160.712C301.865 160.719 300.172 161.232 298.682 162.198L131.35 270.92C128.838 272.557 126.754 274.896 125.306 277.704C123.859 280.513 123.098 283.693 123.099 286.93Z" fill="#5DA024"/>
<path d="M130.34 290.188V418.056C130.345 419.977 130.807 421.863 131.679 423.522C132.551 425.181 133.802 426.555 135.305 427.504C136.808 428.453 138.51 428.943 140.239 428.926C141.968 428.908 143.662 428.384 145.149 427.405L315.894 314.441C317.351 313.475 318.557 312.106 319.396 310.468C320.234 308.829 320.676 306.977 320.678 305.092V174.864C320.677 172.947 320.221 171.064 319.356 169.405C318.491 167.746 317.247 166.37 315.751 165.415C314.254 164.461 312.557 163.962 310.832 163.969C309.107 163.976 307.413 164.489 305.923 165.456L138.591 274.178C136.079 275.815 133.995 278.153 132.548 280.962C131.1 283.77 130.339 286.951 130.34 290.188Z" fill="#79C83B"/>
<path d="M307.674 298.451C311.314 288.263 309.183 277.794 302.915 275.069C296.647 272.344 288.616 278.394 284.976 288.583C281.336 298.771 283.466 309.24 289.734 311.965C296.002 314.69 304.034 308.64 307.674 298.451Z" fill="#FBF472"/>
<path d="M290.287 309.115C293.927 298.926 291.796 288.458 285.529 285.732C279.261 283.007 271.229 289.057 267.589 299.246C263.949 309.435 266.08 319.904 272.348 322.629C278.616 325.354 286.647 319.304 290.287 309.115Z" fill="#E2347C"/>
<path d="M151.399 280.217C153.395 278.663 154.743 279.474 155.167 282.413L153.645 284.305C153.246 282.684 152.497 282.278 151.399 283.123C150.571 283.81 149.919 284.824 149.528 286.028C149.01 287.552 148.754 289.216 148.78 290.893C148.658 292.201 148.917 293.522 149.503 294.575C149.763 294.866 150.089 295.026 150.426 295.026C150.763 295.026 151.09 294.866 151.349 294.575C151.948 294.049 152.459 293.36 152.85 292.551C153.241 291.743 153.503 290.833 153.62 289.879L155.142 289.406C154.981 291.07 154.546 292.663 153.868 294.067C153.189 295.471 152.286 296.649 151.225 297.515C150.786 297.978 150.246 298.229 149.69 298.229C149.134 298.229 148.594 297.978 148.156 297.515C147.679 296.79 147.323 295.936 147.112 295.009C146.901 294.082 146.84 293.105 146.933 292.143C146.912 289.596 147.349 287.08 148.206 284.812C148.92 282.895 150.029 281.299 151.399 280.217Z" fill="white"/>
<path d="M161.521 283.587L164.477 289.047L162.231 290.494L159.275 285.232L158.211 285.889V292.993L156.201 294.276V277.832L160.162 275.299C162.26 273.951 163.442 275.069 163.442 277.898C163.491 280 162.802 282.041 161.521 283.587ZM160.28 281.811C160.701 281.55 161.048 281.161 161.278 280.69C161.508 280.218 161.613 279.683 161.58 279.147C161.58 277.898 161.157 277.547 160.309 278.095L158.359 279.345V283.061L160.309 281.811" fill="white"/>
<path d="M171.638 269.301V271.821L167.403 274.458L167.376 277.535L170.759 275.425V277.945L167.376 280.055L167.349 284.098L171.718 281.373V283.893L165.511 287.761L165.591 273.081L171.638 269.301Z" fill="white"/>
<path d="M177.754 266.685C179.953 265.236 182.076 266.034 182.051 271.208C182.133 273.213 181.776 275.21 181.016 277.01C180.255 278.81 179.115 280.354 177.703 281.496L174.821 283.417V268.636L177.754 266.685ZM179.245 276.973C179.965 275.596 180.325 274.003 180.281 272.39C180.281 270.498 179.902 269.434 179.27 269.168C178.918 269.063 178.55 269.049 178.193 269.125C177.835 269.202 177.495 269.367 177.197 269.611L176.566 270.025V279.751L177.197 279.338C178.051 278.76 178.771 277.949 179.296 276.973" fill="white"/>
<path d="M186.2 261.831L186.113 277.082L184.131 278.269L184.19 263.018L186.2 261.831Z" fill="white"/>
<path d="M194.476 257.134V259.477L192.148 261.057L192.103 272.36L190.551 273.423L190.597 262.119L188.269 263.699L188.292 261.356L194.476 257.134Z" fill="white"/>
<path d="M203.076 249.388C205.096 247.945 206.46 248.698 206.889 251.426L205.349 253.182C204.945 251.677 204.187 251.301 203.076 252.085C202.24 252.726 201.58 253.666 201.182 254.781C200.657 256.196 200.398 257.74 200.424 259.297C200.301 260.511 200.564 261.737 201.157 262.715C201.421 262.979 201.751 263.124 202.091 263.124C202.431 263.124 202.761 262.979 203.025 262.715C203.631 262.226 204.148 261.586 204.544 260.836C204.94 260.085 205.205 259.241 205.324 258.356L206.864 257.917C206.706 259.439 206.277 260.898 205.609 262.189C204.941 263.48 204.05 264.57 203 265.38C202.556 265.81 202.01 266.043 201.447 266.043C200.884 266.043 200.338 265.81 199.894 265.38C199.412 264.708 199.051 263.915 198.838 263.054C198.624 262.194 198.562 261.287 198.656 260.394C198.633 258.03 199.075 255.694 199.944 253.59C200.648 251.85 201.734 250.394 203.076 249.388Z" fill="white"/>
<path d="M213.004 243.239L216.199 256.906L214.287 258.24L213.606 255.062L210.542 257.192L209.835 261.45L207.923 262.785L211.249 244.606L213.004 243.239ZM211.066 253.982L213.082 252.583L212.087 247.784L211.04 254.141" fill="white"/>
<path d="M222.25 246.753L224.475 251.614L222.784 252.902L220.559 248.217L219.781 248.802V255.128L218.268 256.27V241.628L221.227 239.402C222.806 238.202 223.696 239.197 223.696 241.716C223.727 243.578 223.209 245.383 222.25 246.753ZM221.316 245.171C221.627 244.94 221.882 244.597 222.052 244.182C222.221 243.768 222.298 243.298 222.272 242.829C222.272 241.716 221.961 241.394 221.338 241.892L219.87 243.004V246.313L221.338 245.201" fill="white"/>
<path d="M229.079 233.062C230.943 231.522 232.763 232.371 232.741 237.899C232.808 240.025 232.5 242.14 231.848 244.046C231.196 245.953 230.221 247.588 229.014 248.799L226.543 250.84V235.135L229.079 233.062ZM230.358 243.993C230.97 242.527 231.279 240.837 231.246 239.124C231.246 237.114 230.921 235.983 230.379 235.7C230.077 235.589 229.762 235.573 229.455 235.655C229.149 235.736 228.858 235.912 228.602 236.171L228.06 236.642V246.977L228.602 246.506C229.333 245.89 229.95 245.028 230.401 243.993" fill="white"/>
<path d="M149.995 322.026V345.167C149.991 346.144 150.227 347.104 150.677 347.952C151.127 348.799 151.777 349.503 152.56 349.993C153.343 350.483 154.232 350.741 155.137 350.742C156.042 350.743 156.931 350.487 157.715 349.998L187.657 331.543C188.463 331.069 189.136 330.371 189.607 329.521C190.078 328.672 190.331 327.702 190.338 326.712V303.079C190.337 302.091 190.091 301.121 189.626 300.269C189.161 299.417 188.494 298.715 187.693 298.234C186.893 297.754 185.988 297.512 185.072 297.535C184.156 297.558 183.263 297.844 182.484 298.364L152.541 317.311C151.777 317.794 151.14 318.482 150.694 319.308C150.248 320.134 150.007 321.07 149.995 322.026Z" fill="#D1D1F5"/>
<path d="M202.983 302.334L203.786 301.877L202.767 317.1L200.945 318.166L201.717 306.779L199.648 309.641L199.864 306.688L202.983 302.334Z" fill="white"/>
<path d="M207.786 299.011H207.969C209.361 297.994 210.114 299.011 209.977 301.467C209.879 302.795 209.602 304.094 209.155 305.307L207.102 311.153L209.726 309.204L209.589 311.52L204.82 314.908V313.891L207.832 305.42C208.198 304.477 208.437 303.466 208.539 302.427C208.539 301.27 208.311 300.818 207.718 301.27C207.425 301.586 207.185 301.97 207.013 302.402C206.84 302.833 206.739 303.302 206.714 303.783L205.505 304.263C205.6 303.141 205.879 302.055 206.326 301.072C206.679 300.255 207.178 299.55 207.786 299.011Z" fill="white"/>
<path d="M213.088 295.487L218.268 292.104V293.071L215.858 299.261L216.218 298.959C217.603 298.084 218.351 299.322 218.213 301.979C218.137 303.466 217.768 304.919 217.132 306.237C216.671 307.266 215.986 308.157 215.138 308.834L214.861 309.015C214.03 309.589 213.337 309.619 212.839 309.166C212.545 308.834 212.324 308.432 212.194 307.993C212.065 307.553 212.029 307.087 212.091 306.63L213.67 305.271C213.67 306.599 214.224 307.022 215 306.539C215.457 306.119 215.827 305.597 216.085 305.009C216.343 304.42 216.483 303.779 216.495 303.127C216.495 301.405 216.08 300.862 215.249 301.405C214.971 301.623 214.728 301.888 214.529 302.191L213.975 301.103L215.914 296.091L213.144 297.963L213.088 295.487Z" fill="white"/>
<path d="M224.582 296.582L225.509 295.913L225.38 298.435L224.427 299.073L224.273 301.9L222.753 302.963L222.908 300.137L219.302 302.69V301.292L223.449 287.799L225.045 286.675L224.582 296.582ZM223.062 297.645L223.371 291.871L221.26 298.921L223.037 297.645" fill="white"/>
<path d="M234.022 289.366L234.819 288.741L234.69 291.1L233.914 291.696L233.785 294.368L232.535 295.362L232.664 292.719L229.647 295.106V293.828L233.138 281.211L234.474 280.16L234.022 289.366ZM232.75 290.361L233.03 284.934L231.263 291.554L232.75 290.361Z" fill="white"/>
<path d="M239.355 276.858L244.129 273.644L243.96 276.311L240.57 278.625L240.146 282.128C240.455 281.62 240.837 281.175 241.276 280.811H241.502C243.366 279.525 244.327 280.811 244.044 284.185C243.969 285.771 243.614 287.323 242.999 288.749C242.543 289.881 241.843 290.865 240.965 291.609L240.626 291.641C240.361 291.903 240.029 292.062 239.679 292.097C239.329 292.132 238.978 292.04 238.677 291.834C238.398 291.492 238.188 291.084 238.061 290.64C237.934 290.196 237.894 289.726 237.943 289.263L239.553 287.688C239.553 289.07 240.061 289.488 240.796 288.974C241.261 288.519 241.63 287.95 241.874 287.31C242.119 286.67 242.233 285.975 242.208 285.278C242.208 283.446 241.841 282.868 240.937 283.478H240.796C240.097 284.129 239.553 284.969 239.214 285.921L238.197 286.274L239.355 276.858Z" fill="white"/>
<path d="M250.668 276.26C250.962 276.689 251.172 277.181 251.281 277.705C251.391 278.228 251.399 278.771 251.305 279.298C251.21 280.734 250.842 282.131 250.224 283.401C249.763 284.454 249.079 285.371 248.228 286.075L247.979 286.257C247.689 286.527 247.32 286.675 246.939 286.675C246.559 286.675 246.19 286.527 245.9 286.257C245.591 285.836 245.37 285.345 245.255 284.82C245.14 284.294 245.133 283.747 245.235 283.218C245.301 282.178 245.507 281.154 245.845 280.18L248.949 270.486L250.751 269.301L248.45 276.229H248.672C249.503 275.682 250.169 275.682 250.668 276.26ZM249.67 280.331C249.67 278.812 249.226 278.265 248.422 278.812C247.99 279.213 247.64 279.71 247.396 280.271C247.153 280.832 247.02 281.443 247.009 282.064C247.009 283.522 247.48 284.1 248.256 283.583C248.692 283.176 249.045 282.674 249.293 282.109C249.542 281.544 249.679 280.928 249.698 280.301" fill="white"/>
<path d="M252.869 269.438L258.611 266.043L258.553 267.127L254.087 282.447L252.405 283.417L256.436 269.609L252.695 271.806L252.869 269.438Z" fill="white"/>
<path d="M265.949 265.523C266.609 265.75 266.893 266.629 266.798 268.189C266.733 269.496 266.419 270.767 265.878 271.904C265.49 272.811 264.933 273.597 264.25 274.201L264.038 274.372C263.792 274.604 263.489 274.73 263.177 274.73C262.864 274.73 262.561 274.604 262.316 274.372C262.064 274.005 261.884 273.575 261.79 273.113C261.696 272.652 261.69 272.17 261.773 271.706C261.835 270.215 262.253 268.778 262.976 267.565C262.528 267.225 262.339 266.459 262.41 265.239C262.476 264.116 262.742 263.024 263.189 262.034C263.531 261.181 264.041 260.441 264.675 259.879H264.84C265.501 259.425 265.996 259.397 266.374 259.879C266.585 260.198 266.737 260.569 266.818 260.966C266.9 261.362 266.909 261.775 266.845 262.176C266.778 263.363 266.47 264.512 265.949 265.523ZM265.406 269.21C265.443 268.989 265.441 268.762 265.4 268.542C265.36 268.322 265.281 268.115 265.17 267.934C264.982 267.735 264.722 267.735 264.392 267.934C264.08 268.206 263.829 268.567 263.66 268.983C263.428 269.509 263.291 270.09 263.259 270.685C263.221 270.905 263.222 271.133 263.263 271.353C263.304 271.573 263.383 271.78 263.495 271.961C263.684 272.159 263.943 272.188 264.25 271.961C264.562 271.688 264.813 271.328 264.982 270.912C265.216 270.386 265.353 269.805 265.383 269.21M265.524 263.14C265.524 262.063 265.241 261.637 264.675 262.034C264.389 262.325 264.157 262.685 263.994 263.091C263.832 263.496 263.742 263.938 263.731 264.388C263.731 265.466 264.014 265.948 264.557 265.551C264.85 265.253 265.087 264.885 265.254 264.469C265.42 264.054 265.513 263.601 265.524 263.14Z" fill="white"/>
<path d="M274.3 256.54C274.662 256.911 274.92 257.344 275.055 257.808C275.19 258.271 275.198 258.754 275.079 259.221C275.016 260.138 274.786 261.041 274.397 261.902L270.762 270.427L268.619 271.472L271.313 265.36H271.086C270.112 265.843 269.322 265.843 268.716 265.36C268.379 264.978 268.141 264.543 268.018 264.082C267.895 263.62 267.889 263.142 268.002 262.679C268.148 261.462 268.601 260.284 269.333 259.221C269.873 258.292 270.675 257.483 271.671 256.861L271.963 256.701C272.27 256.455 272.67 256.305 273.097 256.275C273.523 256.246 273.948 256.339 274.3 256.54ZM273.164 260.079C273.164 258.792 272.612 258.282 271.671 258.765C271.162 259.125 270.749 259.568 270.458 260.066C270.168 260.565 270.006 261.107 269.982 261.66C269.982 263.001 270.502 263.483 271.476 262.974C271.982 262.62 272.392 262.181 272.678 261.687C272.963 261.192 273.118 260.653 273.131 260.105" fill="white"/>
<path d="M275.598 253.367L281.369 249.754L281.282 250.878L276.845 267.182L275.163 268.215L279.194 253.519L275.453 255.888L275.598 253.367Z" fill="white"/>
<path d="M286.963 246.834C287.219 247.26 287.401 247.755 287.497 248.283C287.593 248.811 287.602 249.36 287.521 249.892C287.48 250.939 287.315 251.971 287.033 252.951L284.429 262.678L282.895 263.871L284.824 256.897H284.662C283.964 257.478 283.383 257.478 282.964 256.897C282.73 256.457 282.564 255.96 282.476 255.435C282.388 254.91 282.38 254.367 282.453 253.838C282.554 252.453 282.871 251.11 283.383 249.892C283.768 248.831 284.343 247.908 285.057 247.201L285.266 247.017C285.94 246.375 286.522 246.344 286.963 246.834ZM286.15 250.902C286.15 249.434 285.754 248.852 285.08 249.403C284.716 249.813 284.42 250.319 284.212 250.888C284.004 251.456 283.888 252.076 283.871 252.707C283.871 254.236 284.243 254.787 284.941 254.205C285.304 253.802 285.597 253.301 285.801 252.737C286.006 252.172 286.117 251.557 286.126 250.932" fill="white"/>
<path d="M174.714 367.031L172.256 375.837L174.821 381.812L173.031 383.275L171.321 379.261L169.397 386.2L167.58 387.663L170.493 377.269L168.302 372.197L170.092 370.765L171.428 373.877L172.951 368.462L174.714 367.031Z" fill="white"/>
<path d="M189.197 356.172L186.738 364.052L189.304 369.397L187.487 370.706L185.803 367.114L183.853 373.323L182.062 374.632L184.948 365.332L182.784 360.794L184.574 359.513L185.91 362.297L187.433 357.453L189.197 356.172Z" fill="white"/>
<path d="M181.956 361.601L179.497 369.481L182.062 374.827L180.245 376.135L178.562 372.543L176.612 378.753L174.821 380.061L177.707 370.762L175.543 366.223L177.333 364.942L178.669 367.727L180.192 362.882L181.956 361.601Z" fill="white"/>
<path d="M199.541 347.485L197.083 355.858L199.648 361.518L197.831 362.904L196.148 359.1L194.197 365.675L192.407 367.031L195.319 357.214L193.128 352.379L194.918 351.023L196.254 354L197.777 348.841L199.541 347.485Z" fill="white"/>
<path d="M206.782 342.055L204.324 350.428L206.889 356.088L205.072 357.474L203.389 353.641L201.438 360.245L199.648 361.601L202.56 351.784L200.369 346.949L202.16 345.593L203.496 348.541L205.019 343.411L206.782 342.055Z" fill="white"/>
<path d="M215.058 335.54L212.609 344.378L215.164 350.353L213.381 351.784L211.677 347.77L209.76 354.709L207.923 356.172L210.825 345.809L208.669 340.706L210.452 339.274L211.783 342.386L213.301 336.972L215.058 335.54Z" fill="white"/>
<path opacity="0.32" d="M589.634 409.087L669.401 461.503L791.351 383.204L706.172 330.11" fill="url(#paint3_linear_324_1124)"/>
<path d="M412.812 62.3833C408.787 65.4511 405.533 69.5996 403.354 74.4396C401.176 79.2797 400.145 84.6525 400.358 90.054C401.141 115.603 406.301 120.534 406.301 120.534L443.124 100.602L496.534 57.4229C496.534 57.4229 451.526 45.2012 412.812 62.3833Z" fill="#666666"/>
<path d="M347.22 204.768C347.22 204.768 338.598 239.94 382.713 276.472C426.829 313.005 590.359 409.38 590.359 409.38L711.698 331.197V270.793L394.454 152.024" fill="#E6E6E6"/>
<path d="M711.699 270.355L533.87 126.143C533.87 126.143 506.142 99.7323 481.765 102.242C457.388 104.751 359.987 176.932 359.987 176.932L600.326 348.571L711.699 270.355Z" fill="#333333"/>
<path d="M502.741 240.271L532.251 266.043L605.151 217.589L577.448 193.288L502.741 240.271Z" fill="#70F9E9"/>
<path d="M464.466 218.059L602 327.939L695 268.758L559.5 160.169L464.466 218.059Z" fill="white"/>
<path d="M599.978 341.966L452.722 221.843C452.722 221.843 388.626 154.004 364.038 174.261C364.038 174.261 349.957 179.821 347.574 203.833C347.574 203.833 367.694 185.617 388.761 199.693C409.829 213.77 595.185 369.202 595.185 369.202L599.978 341.966Z" fill="#666666"/>
<path d="M599.62 341.789L711.699 269.301V292.671L594.806 369.203L599.62 341.789Z" fill="#515151"/>
<path d="M594.462 369.896L589.634 409.381C589.634 409.381 711.698 333.51 711.698 330.619V293.19L594.462 369.896Z" fill="#CCCCCC"/>
<path d="M451.311 182.429L512.051 145.577C512.051 145.577 511.192 80.2151 487.905 40.2946C485.776 36.7982 482.583 34.2711 478.912 33.1767C475.241 32.0824 471.338 32.4941 467.918 34.3363L413.778 62.7573C413.778 62.7573 434.517 49.1129 451.311 182.429Z" fill="#E6E6E6"/>
<path d="M455.156 102.074L494.465 79.27" stroke="#999999" stroke-width="1.015" stroke-miterlimit="10"/>
<path d="M457.225 112.933L496.534 90.1289" stroke="#999999" stroke-width="1.015" stroke-miterlimit="10"/>
<path d="M459.294 122.705L500.672 97.73" stroke="#999999" stroke-width="1.015" stroke-miterlimit="10"/>
<path d="M466.535 161.798L504.81 138.994" stroke="#999999" stroke-width="1.015" stroke-miterlimit="10"/>
<path d="M617.351 250.407C615.075 263.859 594.787 271.284 572.058 267.004C549.329 262.724 532.742 248.311 535.017 234.975C537.293 221.64 557.582 214.099 580.31 218.379C603.039 222.659 619.654 236.955 617.351 250.407Z" fill="#65FFA3"/>
<path d="M566.876 255.184H585.496L578.054 224.779" stroke="#F2F2F2" stroke-width="2.03" stroke-miterlimit="10"/>
<defs>
<linearGradient id="paint0_linear_324_1124" x1="643.953" y1="608.348" x2="625.941" y2="583.063" gradientUnits="userSpaceOnUse">
<stop stop-color="white" stop-opacity="0"/>
<stop offset="0.98" stop-color="#0800BF"/>
</linearGradient>
<linearGradient id="paint1_linear_324_1124" x1="885.489" y1="453.679" x2="817.062" y2="403.925" gradientUnits="userSpaceOnUse">
<stop stop-color="white" stop-opacity="0"/>
<stop offset="0.98" stop-color="#0800BF"/>
</linearGradient>
<linearGradient id="paint2_linear_324_1124" x1="284.842" y1="425.056" x2="247.263" y2="361.527" gradientUnits="userSpaceOnUse">
<stop stop-color="white" stop-opacity="0"/>
<stop offset="0.98" stop-color="#0800BF"/>
</linearGradient>
<linearGradient id="paint3_linear_324_1124" x1="705.198" y1="425.596" x2="668.789" y2="364.16" gradientUnits="userSpaceOnUse">
<stop stop-color="white" stop-opacity="0"/>
<stop offset="0.98" stop-color="#0800BF"/>
</linearGradient>
</defs>
</svg>
