<svg width="1025" height="795" viewBox="0 0 1025 795" fill="none" xmlns="http://www.w3.org/2000/svg">
<path d="M621 121.485H15.2717C6.98746 121.485 0.271729 128.201 0.271729 136.485V655C0.271729 663.284 6.98745 670 15.2717 670H621C629.284 670 636 663.284 636 655V136.485C636 128.201 629.284 121.485 621 121.485Z" fill="white" fill-opacity="0.6"/>
<path d="M621 203H49.5652C41.2809 203 34.5652 209.716 34.5652 218V612C34.5652 620.284 41.2809 627 49.5652 627H621C629.284 627 636 620.284 636 612V218C636 209.716 629.284 203 621 203Z" fill="black"/>
<path d="M60.6991 280.72C61.2538 281.104 62.2351 281.573 63.6431 282.128C65.0511 282.64 66.7151 282.896 68.6351 282.896C70.2991 282.896 71.6644 282.619 72.7311 282.064C73.7978 281.467 74.6084 280.592 75.1631 279.44C75.7604 278.288 76.1444 276.795 76.3151 274.96C76.5284 273.125 76.6351 270.928 76.6351 268.368V244.56H85.4671V267.664C85.4671 271.077 85.2751 274.192 84.8911 277.008C84.5071 279.824 83.7604 282.256 82.6511 284.304C81.5418 286.352 79.8564 287.931 77.5951 289.04C75.3764 290.149 72.4111 290.704 68.6991 290.704C66.6511 290.704 64.8164 290.469 63.1951 290C61.5738 289.531 60.0804 288.827 58.7151 287.888L60.6991 280.72ZM108.534 290.64C105.803 290.64 103.35 290.192 101.174 289.296C98.9981 288.357 97.1421 287.077 95.6061 285.456C94.1128 283.835 92.9608 281.979 92.1501 279.888C91.3394 277.797 90.9341 275.6 90.9341 273.296C90.9341 270.949 91.3394 268.731 92.1501 266.64C92.9608 264.549 94.1128 262.693 95.6061 261.072C97.1421 259.451 98.9981 258.192 101.174 257.296C103.35 256.357 105.803 255.888 108.534 255.888C111.265 255.888 113.697 256.357 115.83 257.296C118.006 258.192 119.862 259.451 121.398 261.072C122.934 262.693 124.086 264.549 124.854 266.64C125.665 268.731 126.07 270.949 126.07 273.296C126.07 275.6 125.665 277.797 124.854 279.888C124.086 281.979 122.934 283.835 121.398 285.456C119.905 287.077 118.07 288.357 115.894 289.296C113.718 290.192 111.265 290.64 108.534 290.64ZM99.7661 273.296C99.7661 275.259 100.15 277.008 100.918 278.544C101.686 280.037 102.731 281.211 104.054 282.064C105.377 282.917 106.87 283.344 108.534 283.344C110.155 283.344 111.627 282.917 112.95 282.064C114.273 281.168 115.318 279.973 116.086 278.48C116.897 276.944 117.302 275.195 117.302 273.232C117.302 271.312 116.897 269.584 116.086 268.048C115.318 266.512 114.273 265.317 112.95 264.464C111.627 263.611 110.155 263.184 108.534 263.184C106.87 263.184 105.377 263.632 104.054 264.528C102.731 265.381 101.686 266.576 100.918 268.112C100.15 269.605 99.7661 271.333 99.7661 273.296ZM163.027 290H154.451V271.184C154.451 268.581 153.939 266.64 152.915 265.36C151.933 264.08 150.568 263.44 148.819 263.44C147.795 263.44 146.707 263.739 145.555 264.336C144.403 264.933 143.357 265.765 142.419 266.832C141.523 267.856 140.861 269.051 140.435 270.416V290H131.859V243.28H140.435V262.672C141.672 260.539 143.357 258.875 145.491 257.68C147.624 256.485 149.949 255.888 152.467 255.888C154.643 255.888 156.413 256.272 157.779 257.04C159.144 257.765 160.211 258.768 160.979 260.048C161.747 261.285 162.28 262.693 162.579 264.272C162.877 265.808 163.027 267.408 163.027 269.072V290ZM201.652 290H193.076V271.184C193.076 268.496 192.606 266.533 191.668 265.296C190.729 264.059 189.428 263.44 187.764 263.44C186.612 263.44 185.438 263.739 184.244 264.336C183.092 264.933 182.046 265.765 181.108 266.832C180.169 267.856 179.486 269.051 179.06 270.416V290H170.484V256.464H178.228V262.672C179.081 261.221 180.169 260.005 181.492 259.024C182.814 258 184.329 257.232 186.036 256.72C187.785 256.165 189.62 255.888 191.54 255.888C193.63 255.888 195.337 256.272 196.66 257.04C198.025 257.765 199.049 258.768 199.732 260.048C200.457 261.285 200.948 262.693 201.204 264.272C201.502 265.851 201.652 267.451 201.652 269.072V290ZM225.316 290V244.56H241.828C246.777 244.56 250.916 245.584 254.244 247.632C257.572 249.637 260.068 252.368 261.732 255.824C263.396 259.237 264.228 263.035 264.228 267.216C264.228 271.824 263.31 275.835 261.476 279.248C259.641 282.661 257.038 285.307 253.668 287.184C250.34 289.061 246.393 290 241.828 290H225.316ZM255.332 267.216C255.332 264.272 254.798 261.691 253.732 259.472C252.665 257.211 251.129 255.461 249.124 254.224C247.118 252.944 244.686 252.304 241.828 252.304H234.148V282.256H241.828C244.729 282.256 247.182 281.616 249.188 280.336C251.193 279.013 252.708 277.221 253.732 274.96C254.798 272.656 255.332 270.075 255.332 267.216ZM285.784 290.64C283.053 290.64 280.6 290.192 278.424 289.296C276.248 288.357 274.392 287.077 272.856 285.456C271.363 283.835 270.211 281.979 269.4 279.888C268.589 277.797 268.184 275.6 268.184 273.296C268.184 270.949 268.589 268.731 269.4 266.64C270.211 264.549 271.363 262.693 272.856 261.072C274.392 259.451 276.248 258.192 278.424 257.296C280.6 256.357 283.053 255.888 285.784 255.888C288.515 255.888 290.947 256.357 293.08 257.296C295.256 258.192 297.112 259.451 298.648 261.072C300.184 262.693 301.336 264.549 302.104 266.64C302.915 268.731 303.32 270.949 303.32 273.296C303.32 275.6 302.915 277.797 302.104 279.888C301.336 281.979 300.184 283.835 298.648 285.456C297.155 287.077 295.32 288.357 293.144 289.296C290.968 290.192 288.515 290.64 285.784 290.64ZM277.016 273.296C277.016 275.259 277.4 277.008 278.168 278.544C278.936 280.037 279.981 281.211 281.304 282.064C282.627 282.917 284.12 283.344 285.784 283.344C287.405 283.344 288.877 282.917 290.2 282.064C291.523 281.168 292.568 279.973 293.336 278.48C294.147 276.944 294.552 275.195 294.552 273.232C294.552 271.312 294.147 269.584 293.336 268.048C292.568 266.512 291.523 265.317 290.2 264.464C288.877 263.611 287.405 263.184 285.784 263.184C284.12 263.184 282.627 263.632 281.304 264.528C279.981 265.381 278.936 266.576 278.168 268.112C277.4 269.605 277.016 271.333 277.016 273.296ZM324.661 290.64C321.973 290.64 319.541 290.192 317.365 289.296C315.189 288.357 313.333 287.099 311.797 285.52C310.261 283.899 309.066 282.064 308.213 280.016C307.402 277.925 306.997 275.728 306.997 273.424C306.997 270.224 307.701 267.301 309.109 264.656C310.559 262.011 312.607 259.899 315.253 258.32C317.941 256.699 321.098 255.888 324.725 255.888C328.394 255.888 331.53 256.699 334.133 258.32C336.735 259.899 338.719 262.011 340.085 264.656C341.493 267.259 342.197 270.075 342.197 273.104C342.197 273.616 342.175 274.149 342.133 274.704C342.09 275.216 342.047 275.643 342.005 275.984H316.085C316.255 277.691 316.746 279.184 317.557 280.464C318.41 281.744 319.477 282.725 320.757 283.408C322.079 284.048 323.487 284.368 324.981 284.368C326.687 284.368 328.287 283.963 329.781 283.152C331.317 282.299 332.362 281.189 332.917 279.824L340.277 281.872C339.466 283.579 338.293 285.093 336.757 286.416C335.263 287.739 333.493 288.784 331.445 289.552C329.397 290.277 327.135 290.64 324.661 290.64ZM315.893 270.544H333.429C333.258 268.837 332.767 267.365 331.957 266.128C331.189 264.848 330.165 263.867 328.885 263.184C327.605 262.459 326.175 262.096 324.597 262.096C323.061 262.096 321.653 262.459 320.373 263.184C319.135 263.867 318.111 264.848 317.301 266.128C316.533 267.365 316.063 268.837 315.893 270.544Z" fill="white"/>
<path d="M76.4111 333.228C76.0511 332.82 75.6311 332.46 75.1511 332.148C74.6711 331.812 74.1311 331.524 73.5311 331.284C72.9311 331.044 72.2831 330.852 71.5871 330.708C70.9151 330.564 70.1951 330.492 69.4271 330.492C67.1951 330.492 65.5511 330.924 64.4951 331.788C63.4631 332.628 62.9471 333.78 62.9471 335.244C62.9471 336.252 63.1871 337.044 63.6671 337.62C64.1711 338.196 64.9511 338.664 66.0071 339.024C67.0631 339.384 68.4071 339.756 70.0391 340.14C71.8631 340.524 73.4351 340.98 74.7551 341.508C76.0751 342.036 77.0951 342.756 77.8151 343.668C78.5351 344.556 78.8951 345.768 78.8951 347.304C78.8951 348.48 78.6671 349.5 78.2111 350.364C77.7551 351.228 77.1191 351.948 76.3031 352.524C75.4871 353.1 74.5151 353.532 73.3871 353.82C72.2591 354.084 71.0231 354.216 69.6791 354.216C68.3591 354.216 67.0871 354.084 65.8631 353.82C64.6631 353.532 63.5231 353.124 62.4431 352.596C61.3631 352.044 60.3551 351.348 59.4191 350.508L60.6791 348.456C61.1351 348.936 61.6751 349.392 62.2991 349.824C62.9471 350.232 63.6551 350.604 64.4231 350.94C65.2151 351.276 66.0551 351.54 66.9431 351.732C67.8551 351.9 68.7911 351.984 69.7511 351.984C71.7911 351.984 73.3751 351.612 74.5031 350.868C75.6551 350.124 76.2311 349.02 76.2311 347.556C76.2311 346.5 75.9431 345.66 75.3671 345.036C74.7911 344.388 73.9271 343.86 72.7751 343.452C71.6231 343.044 70.2071 342.648 68.5271 342.264C66.7511 341.856 65.2511 341.4 64.0271 340.896C62.8031 340.392 61.8791 339.732 61.2551 338.916C60.6551 338.076 60.3551 336.972 60.3551 335.604C60.3551 334.02 60.7391 332.688 61.5071 331.608C62.2991 330.504 63.3791 329.676 64.7471 329.124C66.1151 328.548 67.6871 328.26 69.4631 328.26C70.5911 328.26 71.6351 328.38 72.5951 328.62C73.5791 328.836 74.4791 329.16 75.2951 329.592C76.1351 330.024 76.9151 330.564 77.6351 331.212L76.4111 333.228ZM90.8263 354.36C89.4823 354.36 88.2343 354.108 87.0823 353.604C85.9543 353.076 84.9703 352.368 84.1303 351.48C83.3143 350.568 82.6783 349.536 82.2223 348.384C81.7663 347.208 81.5383 345.972 81.5383 344.676C81.5383 343.332 81.7663 342.084 82.2223 340.932C82.6783 339.756 83.3263 338.724 84.1663 337.836C85.0063 336.924 85.9903 336.216 87.1183 335.712C88.2703 335.184 89.5183 334.92 90.8623 334.92C92.2063 334.92 93.4423 335.184 94.5703 335.712C95.6983 336.216 96.6823 336.924 97.5223 337.836C98.3623 338.724 99.0103 339.756 99.4663 340.932C99.9223 342.084 100.15 343.332 100.15 344.676C100.15 345.972 99.9223 347.208 99.4663 348.384C99.0103 349.536 98.3623 350.568 97.5223 351.48C96.7063 352.368 95.7223 353.076 94.5703 353.604C93.4423 354.108 92.1943 354.36 90.8263 354.36ZM84.0223 344.712C84.0223 346.104 84.3223 347.376 84.9223 348.528C85.5463 349.656 86.3743 350.556 87.4063 351.228C88.4383 351.876 89.5783 352.2 90.8263 352.2C92.0743 352.2 93.2143 351.864 94.2463 351.192C95.2783 350.52 96.1063 349.608 96.7303 348.456C97.3543 347.28 97.6663 346.008 97.6663 344.64C97.6663 343.248 97.3543 341.976 96.7303 340.824C96.1063 339.672 95.2783 338.76 94.2463 338.088C93.2143 337.416 92.0743 337.08 90.8263 337.08C89.5783 337.08 88.4383 337.428 87.4063 338.124C86.3983 338.82 85.5823 339.744 84.9583 340.896C84.3343 342.024 84.0223 343.296 84.0223 344.712ZM104.828 354V337.188H102.236V335.244H104.828V334.74C104.828 333.204 105.044 331.884 105.476 330.78C105.932 329.676 106.568 328.836 107.384 328.26C108.224 327.66 109.208 327.36 110.336 327.36C111.08 327.36 111.8 327.468 112.496 327.684C113.192 327.9 113.792 328.188 114.296 328.548L113.54 330.312C113.228 330.048 112.82 329.844 112.316 329.7C111.812 329.556 111.308 329.484 110.804 329.484C109.676 329.484 108.8 329.928 108.176 330.816C107.576 331.704 107.276 332.988 107.276 334.668V335.244H112.46V337.188H107.276V354H104.828ZM124.811 353.1C124.619 353.172 124.319 353.304 123.911 353.496C123.503 353.688 123.011 353.856 122.435 354C121.859 354.144 121.235 354.216 120.563 354.216C119.867 354.216 119.207 354.084 118.583 353.82C117.983 353.556 117.503 353.16 117.143 352.632C116.783 352.08 116.603 351.408 116.603 350.616V337.188H114.011V335.244H116.603V328.908H119.051V335.244H123.371V337.188H119.051V349.932C119.099 350.604 119.339 351.108 119.771 351.444C120.227 351.78 120.743 351.948 121.319 351.948C121.991 351.948 122.603 351.84 123.155 351.624C123.707 351.384 124.043 351.216 124.163 351.12L124.811 353.1ZM151.485 335.244H153.897L145.833 354H143.709L139.785 344.676L135.897 354H133.773L125.709 335.244H128.085L134.925 351.48L138.381 343.02L135.213 335.28H137.409L139.785 341.364L142.197 335.28H144.357L141.225 343.02L144.681 351.48L151.485 335.244ZM155.186 348.6C155.186 347.424 155.522 346.416 156.194 345.576C156.866 344.712 157.79 344.052 158.966 343.596C160.166 343.116 161.546 342.876 163.106 342.876C164.018 342.876 164.966 342.948 165.95 343.092C166.934 343.236 167.81 343.452 168.578 343.74V342.156C168.578 340.572 168.11 339.312 167.174 338.376C166.238 337.44 164.942 336.972 163.286 336.972C162.278 336.972 161.282 337.164 160.298 337.548C159.338 337.908 158.33 338.448 157.274 339.168L156.338 337.44C157.562 336.6 158.762 335.976 159.938 335.568C161.114 335.136 162.314 334.92 163.538 334.92C165.842 334.92 167.666 335.58 169.01 336.9C170.354 338.22 171.026 340.044 171.026 342.372V351.048C171.026 351.384 171.098 351.636 171.242 351.804C171.386 351.948 171.614 352.032 171.926 352.056V354C171.662 354.024 171.434 354.048 171.242 354.072C171.05 354.096 170.906 354.096 170.81 354.072C170.21 354.048 169.754 353.856 169.442 353.496C169.13 353.136 168.962 352.752 168.938 352.344L168.902 350.976C168.062 352.056 166.97 352.896 165.626 353.496C164.282 354.072 162.914 354.36 161.522 354.36C160.322 354.36 159.23 354.108 158.246 353.604C157.286 353.076 156.53 352.38 155.978 351.516C155.45 350.628 155.186 349.656 155.186 348.6ZM167.75 350.04C168.014 349.704 168.218 349.38 168.362 349.068C168.506 348.756 168.578 348.48 168.578 348.24V345.504C167.762 345.192 166.91 344.952 166.022 344.784C165.158 344.616 164.282 344.532 163.394 344.532C161.642 344.532 160.226 344.88 159.146 345.576C158.066 346.272 157.526 347.22 157.526 348.42C157.526 349.116 157.706 349.776 158.066 350.4C158.426 351 158.954 351.504 159.65 351.912C160.346 352.296 161.162 352.488 162.098 352.488C163.274 352.488 164.366 352.26 165.374 351.804C166.406 351.348 167.198 350.76 167.75 350.04ZM185.675 337.404C184.043 337.452 182.603 337.908 181.355 338.772C180.131 339.636 179.267 340.824 178.763 342.336V354H176.315V335.244H178.619V339.744C179.267 338.424 180.119 337.356 181.175 336.54C182.255 335.724 183.395 335.268 184.595 335.172C184.835 335.148 185.039 335.136 185.207 335.136C185.399 335.136 185.555 335.148 185.675 335.172V337.404ZM196.438 354.36C195.094 354.36 193.846 354.108 192.694 353.604C191.542 353.076 190.546 352.368 189.706 351.48C188.866 350.568 188.206 349.524 187.726 348.348C187.27 347.172 187.042 345.912 187.042 344.568C187.042 342.816 187.438 341.208 188.23 339.744C189.046 338.28 190.162 337.116 191.578 336.252C192.994 335.364 194.602 334.92 196.402 334.92C198.25 334.92 199.858 335.364 201.226 336.252C202.618 337.14 203.71 338.316 204.502 339.78C205.294 341.22 205.69 342.804 205.69 344.532C205.69 344.724 205.69 344.916 205.69 345.108C205.69 345.276 205.678 345.408 205.654 345.504H189.598C189.718 346.848 190.09 348.048 190.714 349.104C191.362 350.136 192.19 350.964 193.198 351.588C194.23 352.188 195.346 352.488 196.546 352.488C197.77 352.488 198.922 352.176 200.002 351.552C201.106 350.928 201.874 350.112 202.306 349.104L204.43 349.68C204.046 350.568 203.458 351.372 202.666 352.092C201.874 352.812 200.938 353.376 199.858 353.784C198.802 354.168 197.662 354.36 196.438 354.36ZM189.526 343.74H203.386C203.29 342.372 202.918 341.172 202.27 340.14C201.646 339.108 200.818 338.304 199.786 337.728C198.778 337.128 197.662 336.828 196.438 336.828C195.214 336.828 194.098 337.128 193.09 337.728C192.082 338.304 191.254 339.12 190.606 340.176C189.982 341.208 189.622 342.396 189.526 343.74ZM219.147 354V328.44H227.823C230.535 328.44 232.791 329.016 234.591 330.168C236.415 331.296 237.783 332.832 238.695 334.776C239.607 336.696 240.063 338.832 240.063 341.184C240.063 343.776 239.559 346.032 238.551 347.952C237.567 349.872 236.151 351.36 234.303 352.416C232.479 353.472 230.319 354 227.823 354H219.147ZM237.543 341.184C237.543 339.144 237.159 337.332 236.391 335.748C235.647 334.164 234.555 332.928 233.115 332.04C231.675 331.128 229.911 330.672 227.823 330.672H221.667V351.768H227.823C229.935 351.768 231.711 351.3 233.151 350.364C234.591 349.428 235.683 348.168 236.427 346.584C237.171 344.976 237.543 343.176 237.543 341.184ZM252.477 354.36C251.133 354.36 249.885 354.108 248.733 353.604C247.581 353.076 246.585 352.368 245.745 351.48C244.905 350.568 244.245 349.524 243.765 348.348C243.309 347.172 243.081 345.912 243.081 344.568C243.081 342.816 243.477 341.208 244.269 339.744C245.085 338.28 246.201 337.116 247.617 336.252C249.033 335.364 250.641 334.92 252.441 334.92C254.289 334.92 255.897 335.364 257.265 336.252C258.657 337.14 259.749 338.316 260.541 339.78C261.333 341.22 261.729 342.804 261.729 344.532C261.729 344.724 261.729 344.916 261.729 345.108C261.729 345.276 261.717 345.408 261.693 345.504H245.637C245.757 346.848 246.129 348.048 246.753 349.104C247.401 350.136 248.229 350.964 249.237 351.588C250.269 352.188 251.385 352.488 252.585 352.488C253.809 352.488 254.961 352.176 256.041 351.552C257.145 350.928 257.913 350.112 258.345 349.104L260.469 349.68C260.085 350.568 259.497 351.372 258.705 352.092C257.913 352.812 256.977 353.376 255.897 353.784C254.841 354.168 253.701 354.36 252.477 354.36ZM245.565 343.74H259.425C259.329 342.372 258.957 341.172 258.309 340.14C257.685 339.108 256.857 338.304 255.825 337.728C254.817 337.128 253.701 336.828 252.477 336.828C251.253 336.828 250.137 337.128 249.129 337.728C248.121 338.304 247.293 339.12 246.645 340.176C246.021 341.208 245.661 342.396 245.565 343.74ZM270.594 354L262.998 335.244H265.554L271.962 351.552L278.406 335.244H280.818L273.222 354H270.594ZM291.676 354.36C290.332 354.36 289.084 354.108 287.932 353.604C286.78 353.076 285.784 352.368 284.944 351.48C284.104 350.568 283.444 349.524 282.964 348.348C282.508 347.172 282.28 345.912 282.28 344.568C282.28 342.816 282.676 341.208 283.468 339.744C284.284 338.28 285.4 337.116 286.816 336.252C288.232 335.364 289.84 334.92 291.64 334.92C293.488 334.92 295.096 335.364 296.464 336.252C297.856 337.14 298.948 338.316 299.74 339.78C300.532 341.22 300.928 342.804 300.928 344.532C300.928 344.724 300.928 344.916 300.928 345.108C300.928 345.276 300.916 345.408 300.892 345.504H284.836C284.956 346.848 285.328 348.048 285.952 349.104C286.6 350.136 287.428 350.964 288.436 351.588C289.468 352.188 290.584 352.488 291.784 352.488C293.008 352.488 294.16 352.176 295.24 351.552C296.344 350.928 297.112 350.112 297.544 349.104L299.668 349.68C299.284 350.568 298.696 351.372 297.904 352.092C297.112 352.812 296.176 353.376 295.096 353.784C294.04 354.168 292.9 354.36 291.676 354.36ZM284.764 343.74H298.624C298.528 342.372 298.156 341.172 297.508 340.14C296.884 339.108 296.056 338.304 295.024 337.728C294.016 337.128 292.9 336.828 291.676 336.828C290.452 336.828 289.336 337.128 288.328 337.728C287.32 338.304 286.492 339.12 285.844 340.176C285.22 341.208 284.86 342.396 284.764 343.74ZM304.813 327.72H307.261V349.752C307.261 350.688 307.429 351.3 307.765 351.588C308.101 351.876 308.509 352.02 308.989 352.02C309.421 352.02 309.853 351.972 310.285 351.876C310.717 351.78 311.089 351.684 311.401 351.588L311.833 353.568C311.377 353.76 310.813 353.916 310.141 354.036C309.493 354.156 308.929 354.216 308.449 354.216C307.345 354.216 306.457 353.892 305.785 353.244C305.137 352.596 304.813 351.708 304.813 350.58V327.72ZM322.506 354.36C321.162 354.36 319.914 354.108 318.762 353.604C317.634 353.076 316.65 352.368 315.81 351.48C314.994 350.568 314.358 349.536 313.902 348.384C313.446 347.208 313.218 345.972 313.218 344.676C313.218 343.332 313.446 342.084 313.902 340.932C314.358 339.756 315.006 338.724 315.846 337.836C316.686 336.924 317.67 336.216 318.798 335.712C319.95 335.184 321.198 334.92 322.542 334.92C323.886 334.92 325.122 335.184 326.25 335.712C327.378 336.216 328.362 336.924 329.202 337.836C330.042 338.724 330.69 339.756 331.146 340.932C331.602 342.084 331.83 343.332 331.83 344.676C331.83 345.972 331.602 347.208 331.146 348.384C330.69 349.536 330.042 350.568 329.202 351.48C328.386 352.368 327.402 353.076 326.25 353.604C325.122 354.108 323.874 354.36 322.506 354.36ZM315.702 344.712C315.702 346.104 316.002 347.376 316.602 348.528C317.226 349.656 318.054 350.556 319.086 351.228C320.118 351.876 321.258 352.2 322.506 352.2C323.754 352.2 324.894 351.864 325.926 351.192C326.958 350.52 327.786 349.608 328.41 348.456C329.034 347.28 329.346 346.008 329.346 344.64C329.346 343.248 329.034 341.976 328.41 340.824C327.786 339.672 326.958 338.76 325.926 338.088C324.894 337.416 323.754 337.08 322.506 337.08C321.258 337.08 320.118 337.428 319.086 338.124C318.078 338.82 317.262 339.744 316.638 340.896C316.014 342.024 315.702 343.296 315.702 344.712ZM345.5 354.36C343.94 354.36 342.536 353.952 341.288 353.136C340.064 352.32 339.092 351.312 338.372 350.112V361.668H335.924V335.244H338.12V338.88C338.864 337.704 339.86 336.756 341.108 336.036C342.356 335.292 343.688 334.92 345.104 334.92C346.4 334.92 347.588 335.196 348.668 335.748C349.748 336.276 350.684 336.996 351.476 337.908C352.268 338.82 352.88 339.864 353.312 341.04C353.768 342.192 353.996 343.392 353.996 344.64C353.996 346.392 353.636 348.012 352.916 349.5C352.22 350.964 351.236 352.14 349.964 353.028C348.692 353.916 347.204 354.36 345.5 354.36ZM344.816 352.2C345.848 352.2 346.772 351.996 347.588 351.588C348.404 351.156 349.1 350.58 349.676 349.86C350.276 349.14 350.732 348.336 351.044 347.448C351.356 346.536 351.512 345.6 351.512 344.64C351.512 343.632 351.332 342.672 350.972 341.76C350.636 340.848 350.144 340.044 349.496 339.348C348.848 338.652 348.104 338.1 347.264 337.692C346.424 337.284 345.512 337.08 344.528 337.08C343.904 337.08 343.256 337.2 342.584 337.44C341.912 337.68 341.264 338.028 340.64 338.484C340.04 338.916 339.536 339.408 339.128 339.96C338.72 340.512 338.468 341.1 338.372 341.724V347.484C338.756 348.372 339.272 349.176 339.92 349.896C340.568 350.592 341.312 351.156 342.152 351.588C343.016 351.996 343.904 352.2 344.816 352.2ZM366.243 354.36C364.899 354.36 363.651 354.108 362.499 353.604C361.347 353.076 360.351 352.368 359.511 351.48C358.671 350.568 358.011 349.524 357.531 348.348C357.075 347.172 356.847 345.912 356.847 344.568C356.847 342.816 357.243 341.208 358.035 339.744C358.851 338.28 359.967 337.116 361.383 336.252C362.799 335.364 364.407 334.92 366.207 334.92C368.055 334.92 369.663 335.364 371.031 336.252C372.423 337.14 373.515 338.316 374.307 339.78C375.099 341.22 375.495 342.804 375.495 344.532C375.495 344.724 375.495 344.916 375.495 345.108C375.495 345.276 375.483 345.408 375.459 345.504H359.403C359.523 346.848 359.895 348.048 360.519 349.104C361.167 350.136 361.995 350.964 363.003 351.588C364.035 352.188 365.151 352.488 366.351 352.488C367.575 352.488 368.727 352.176 369.807 351.552C370.911 350.928 371.679 350.112 372.111 349.104L374.235 349.68C373.851 350.568 373.263 351.372 372.471 352.092C371.679 352.812 370.743 353.376 369.663 353.784C368.607 354.168 367.467 354.36 366.243 354.36ZM359.331 343.74H373.191C373.095 342.372 372.723 341.172 372.075 340.14C371.451 339.108 370.623 338.304 369.591 337.728C368.583 337.128 367.467 336.828 366.243 336.828C365.019 336.828 363.903 337.128 362.895 337.728C361.887 338.304 361.059 339.12 360.411 340.176C359.787 341.208 359.427 342.396 359.331 343.74ZM388.632 337.404C387 337.452 385.56 337.908 384.312 338.772C383.088 339.636 382.224 340.824 381.72 342.336V354H379.272V335.244H381.576V339.744C382.224 338.424 383.076 337.356 384.132 336.54C385.212 335.724 386.352 335.268 387.552 335.172C387.792 335.148 387.996 335.136 388.164 335.136C388.356 335.136 388.512 335.148 388.632 335.172V337.404Z" fill="white"/>
<path d="M0 136C0 127.716 6.71573 121 15 121H636V157H0V136Z" fill="#EDEDED"/>
<path d="M21.233 146C24.7782 146 27.6522 143.09 27.6522 139.5C27.6522 135.91 24.7782 133 21.233 133C17.6877 133 14.8137 135.91 14.8137 139.5C14.8137 143.09 17.6877 146 21.233 146Z" fill="#FF065C"/>
<path d="M45.9224 146C49.4677 146 52.3417 143.09 52.3417 139.5C52.3417 135.91 49.4677 133 45.9224 133C42.3772 133 39.5032 135.91 39.5032 139.5C39.5032 143.09 42.3772 146 45.9224 146Z" fill="#FFBD44"/>
<path d="M70.6119 146C74.1571 146 77.0311 143.09 77.0311 139.5C77.0311 135.91 74.1571 133 70.6119 133C67.0666 133 64.1926 135.91 64.1926 139.5C64.1926 143.09 67.0666 146 70.6119 146Z" fill="#00CA4E"/>
<path d="M1009.67 187.971V195.971H1014V264.721H1009.67V272.721V722.091C1009.67 730.094 1008.1 738.019 1005.06 745.412C1002.01 752.804 997.542 759.519 991.914 765.173C986.286 770.828 979.606 775.311 972.258 778.369C964.909 781.427 957.035 783 949.083 783H698.002C690.05 783 682.176 781.427 674.827 778.369C667.479 775.31 660.799 770.827 655.171 765.173C649.543 759.519 645.077 752.804 642.029 745.412C638.981 738.019 637.412 730.094 637.412 722.09V309.576V301.576H633V274.856H637.412V266.856V248.282V240.282H633V213.561H637.412V205.561V175.843V167.843H633V155.982H637.412V147.982V68.9094C637.412 60.9055 638.981 52.9808 642.029 45.5881C645.077 38.1956 649.544 31.4809 655.172 25.8267C660.8 20.1725 667.479 15.6893 674.828 12.6313C682.176 9.57335 690.051 7.99995 698.003 8H949.084C965.141 8.00011 980.549 14.4083 991.914 25.827C1003.28 37.2469 1009.67 52.7435 1009.67 68.9096V187.971Z" stroke="#3F3D56" stroke-width="16"/>
<rect x="1002" y="191" width="12" height="92" fill="#3F3D56"/>
<rect x="1002" y="191" width="12" height="92" fill="#3F3D56"/>
<rect x="1002" y="191" width="12" height="92" fill="#3F3D56"/>
<path d="M950.306 17H917.23C918.751 20.7264 919.331 24.7694 918.921 28.7729C918.51 32.7763 917.12 36.6174 914.873 39.9576C912.627 43.2978 909.593 46.0347 906.038 47.9273C902.484 49.8198 898.518 50.8098 894.491 50.8101H749.326C745.299 50.8098 741.333 49.8198 737.779 47.9273C734.224 46.0347 731.19 43.2978 728.944 39.9576C726.697 36.6173 725.307 32.7763 724.896 28.7729C724.485 24.7694 725.066 20.7264 726.587 17H695.694C681.984 17 668.835 22.4423 659.141 32.1295C649.446 41.8168 644 54.9556 644 68.6555V723.344C644 730.128 645.337 736.845 647.935 743.112C650.533 749.379 654.341 755.074 659.141 759.87C663.941 764.667 669.64 768.472 675.912 771.068C682.183 773.664 688.906 775 695.694 775H950.306C964.016 775 977.165 769.558 986.859 759.87C996.554 750.183 1002 737.044 1002 723.344V68.6555C1002 61.872 1000.66 55.1549 998.065 48.8878C995.467 42.6206 991.659 36.9262 986.859 32.1295C982.059 27.3329 976.36 23.528 970.088 20.932C963.816 18.3361 957.094 17 950.306 17Z" fill="white" fill-opacity="0.7"/>
<path d="M970.434 273H682.566C680.56 272.997 678.637 272.09 677.219 270.478C675.8 268.865 675.002 266.678 675 264.398V131.602C675.002 129.322 675.8 127.135 677.219 125.522C678.637 123.91 680.56 123.003 682.566 123H970.434C972.44 123.003 974.363 123.91 975.781 125.522C977.2 127.135 977.998 129.322 978 131.602V264.398C977.998 266.678 977.2 268.865 975.781 270.478C974.363 272.09 972.44 272.997 970.434 273Z" fill="#FF065C"/>
<path d="M932.367 353H718.633C716.609 353 714.667 352.157 713.236 350.657C711.804 349.157 711 347.122 711 345C711 342.878 711.804 340.843 713.236 339.343C714.667 337.843 716.609 337 718.633 337H932.367C934.391 337 936.333 337.843 937.764 339.343C939.196 340.843 940 342.878 940 345C940 347.122 939.196 349.157 937.764 350.657C936.333 352.157 934.391 353 932.367 353Z" fill="#6C63FF"/>
<path d="M970.434 596H682.566C680.56 595.997 678.637 595.09 677.219 593.477C675.8 591.865 675.002 589.678 675 587.398V454.602C675.002 452.322 675.8 450.135 677.219 448.523C678.637 446.91 680.56 446.003 682.566 446H970.434C972.44 446.003 974.363 446.91 975.781 448.522C977.2 450.135 977.998 452.322 978 454.602V587.398C977.998 589.678 977.2 591.865 975.781 593.477C974.363 595.09 972.44 595.997 970.434 596Z" fill="#6C63FF"/>
<rect x="633" y="215" width="12" height="92" fill="#3F3D56"/>
<rect x="633" y="215" width="12" height="92" fill="#3F3D56"/>
<rect x="633" y="215" width="12" height="92" fill="#3F3D56"/>
<rect x="724" y="4" width="194" height="48" rx="24" fill="#3F3D56"/>
<path d="M836.161 30H797.839C797.086 30 796.364 29.7366 795.831 29.2678C795.299 28.7989 795 28.163 795 27.5C795 26.837 795.299 26.2011 795.831 25.7322C796.364 25.2634 797.086 25 797.839 25H836.161C836.914 25 837.636 25.2634 838.169 25.7322C838.701 26.2011 839 26.837 839 27.5C839 28.163 838.701 28.7989 838.169 29.2678C837.636 29.7366 836.914 30 836.161 30Z" fill="white"/>
<path d="M854.5 30C856.433 30 858 28.8807 858 27.5C858 26.1193 856.433 25 854.5 25C852.567 25 851 26.1193 851 27.5C851 28.8807 852.567 30 854.5 30Z" fill="white"/>
</svg>
