<svg width="935" height="652" viewBox="0 0 935 652" fill="none" xmlns="http://www.w3.org/2000/svg">
<g clip-path="url(#clip0_323_1064)">
<path opacity="0.54" d="M914.163 488.476C901.652 508.558 881.299 524.631 861.298 540.331C838.786 557.965 816.011 575.811 791.23 591.192C775.431 601.201 758.464 609.952 740.568 617.324C679.839 641.894 609.749 645.708 541.818 648.493C483.578 650.888 425.25 652.875 366.923 653.815C315.996 654.631 250.568 651.601 200.5 642.5C167.68 636.486 135.952 626.56 113 608.5C107.758 604.384 79.8746 577.903 74.5 574C47.5 548.5 58.0658 559.811 35.1797 532.208C-0.0636482 489.4 -12.0311 429.88 14.1371 382.957C35.8337 343.929 82.0025 317.159 129.647 298.265C156.828 287.444 162.738 273.003 188.532 260.053C238.379 235.004 228.819 168.233 268.931 133.569C309.042 98.9044 420.455 82.3076 478.364 74.5019C553.498 64.319 611.698 85.4574 659.013 133.569C689.983 165.076 705.431 217.578 744 243C762.943 255.418 847.094 278.472 866.5 290.5C889.628 304.692 886.5 304 897 316.5C930.195 358.97 941.983 443.664 914.163 488.476Z" fill="#0088FF"/>
<path style="mix-blend-mode:multiply" d="M291.905 482.7L222.681 520.293C222.681 520.293 287.359 570.185 316.384 582.21L385.684 541.835" fill="url(#paint0_linear_323_1064)"/>
<path style="mix-blend-mode:multiply" d="M289.086 332.403L219.862 369.996C219.862 369.996 236.444 395.663 265.571 407.589L340.381 367.213" fill="url(#paint1_linear_323_1064)"/>
<path style="mix-blend-mode:multiply" d="M663.517 480.638C663.517 480.638 747.189 434.796 747.697 434.026L617.706 369.996L544.598 411.291L663.517 480.638Z" fill="url(#paint2_linear_323_1064)"/>
<path d="M759.506 293.444L865.652 357.822C866.625 358.41 867.424 359.236 867.971 360.219C868.518 361.202 868.794 362.307 868.771 363.426C868.747 364.545 868.427 365.639 867.84 366.599C867.252 367.56 866.42 368.354 865.423 368.903L704.325 457.978C702.085 459.241 699.546 459.905 696.961 459.905C694.376 459.905 691.836 459.241 689.597 457.978L583.933 397.203C576.315 391.041 578.397 381.898 583.933 378.916L744.092 293.245C746.438 291.909 749.112 291.221 751.827 291.256C754.542 291.291 757.196 292.047 759.506 293.444Z" fill="#68E1FD"/>
<path d="M759.506 289.021L865.652 353.399C866.625 353.987 867.424 354.813 867.971 355.796C868.518 356.779 868.794 357.884 868.771 359.003C868.747 360.122 868.427 361.216 867.839 362.176C867.252 363.137 866.42 363.931 865.423 364.48L704.35 453.63C702.11 454.892 699.571 455.557 696.986 455.557C694.401 455.557 691.862 454.892 689.622 453.63L583.958 392.855C582.72 392.152 581.691 391.142 580.977 389.928C580.262 388.713 579.886 387.337 579.886 385.935C579.886 384.534 580.262 383.157 580.977 381.943C581.691 380.728 582.72 379.719 583.958 379.015L744.117 288.922C746.451 287.575 749.115 286.873 751.825 286.89C754.535 286.908 757.19 287.644 759.506 289.021Z" fill="white"/>
<path d="M752.446 292.499L859.125 358.193L699.576 447.517L589.494 384.183L752.446 292.499Z" fill="#606060"/>
<path d="M637.54 420.211C639.629 420.211 641.323 419.433 641.323 418.472C641.323 417.512 639.629 416.733 637.54 416.733C635.45 416.733 633.756 417.512 633.756 418.472C633.756 419.433 635.45 420.211 637.54 420.211Z" fill="#383097"/>
<path style="mix-blend-mode:multiply" d="M756.382 401.377C756.382 401.377 770.273 376.108 770.349 375.984L767.962 374.816L738.454 391.488L756.382 401.377Z" fill="url(#paint3_linear_323_1064)"/>
<path d="M881.142 308.178C881.106 307.997 881.106 307.811 881.142 307.631C879.693 306.889 878.133 306.378 876.52 306.115L777.484 363.958C777.484 363.958 771.542 368.505 782.563 374.642L883.097 316.178C883 313.41 882.335 310.689 881.142 308.178Z" fill="#CCCCCC"/>
<path d="M777.282 363.933C777.282 363.933 765.753 376.555 765.55 377.375C765.347 378.195 782.233 374.617 782.233 374.617" fill="#CCCCCC"/>
<path d="M882.734 316.198C884.556 315.169 884.674 312.032 882.998 309.192C881.322 306.351 878.487 304.883 876.665 305.912C874.843 306.942 874.725 310.078 876.401 312.919C878.077 315.759 880.912 317.227 882.734 316.198Z" fill="#F2F2F2"/>
<path d="M380.656 283.257L422.251 302.861C423.814 303.6 425.142 304.741 426.093 306.162C427.044 307.584 427.582 309.231 427.65 310.928C427.718 312.626 427.313 314.309 426.478 315.799C425.643 317.288 424.41 318.527 422.911 319.384L324.307 375.661C322.175 376.877 319.646 377.24 317.247 376.675C314.849 376.11 312.766 374.661 311.432 372.63L287.486 336.23" fill="#686868"/>
<path d="M154.321 188.988L486.116 1.96787C488.391 0.679348 490.974 0.00058571 493.603 3.7889e-07C496.233 -0.000584952 498.816 0.677029 501.092 1.96454C503.369 3.25205 505.258 5.10396 506.57 7.3336C507.881 9.56324 508.569 12.0918 508.564 14.6645V209.213C508.562 211.349 507.987 213.447 506.895 215.296C505.803 217.145 504.233 218.681 502.342 219.748L148.683 419.49C147.463 420.18 146.078 420.543 144.669 420.542C143.259 420.542 141.875 420.178 140.655 419.488C139.435 418.798 138.422 417.806 137.718 416.611C137.015 415.416 136.645 414.061 136.646 412.682V218.879C136.655 212.818 138.293 206.865 141.395 201.619C144.497 196.373 148.955 192.017 154.321 188.988Z" fill="#2F2E41"/>
<path d="M486.065 16.6772L164.376 197.784C160.94 199.719 158.086 202.507 156.102 205.866C154.118 209.225 153.074 213.036 153.076 216.916V362.766C153.08 364.16 153.457 365.529 154.171 366.737C154.884 367.944 155.909 368.947 157.142 369.646C158.376 370.345 159.775 370.715 161.2 370.72C162.625 370.725 164.027 370.364 165.265 369.673L493.353 185.46C494.579 184.773 495.598 183.782 496.307 182.587C497.016 181.392 497.389 180.034 497.39 178.652V23.1621C497.386 21.8656 497.035 20.5928 496.374 19.4692C495.713 18.3457 494.764 17.4103 493.62 16.7555C492.476 16.1007 491.178 15.749 489.853 15.7353C488.528 15.7215 487.222 16.0462 486.065 16.6772Z" fill="white"/>
<path d="M502.419 367.362L589.215 415.887C590.122 416.4 590.875 417.137 591.399 418.025C591.922 418.912 592.198 419.919 592.198 420.944C592.198 421.968 591.922 422.975 591.399 423.863C590.875 424.75 590.122 425.487 589.215 426L348.126 561.712C345.203 563.361 341.889 564.228 338.515 564.228C335.141 564.228 331.826 563.361 328.903 561.712L247.643 515.82C246.699 515.286 245.916 514.517 245.371 513.593C244.827 512.668 244.54 511.62 244.54 510.553C244.54 509.486 244.827 508.438 245.371 507.513C245.916 506.589 246.699 505.82 247.643 505.285L491.576 367.412C493.218 366.468 495.086 365.966 496.99 365.958C498.895 365.949 500.768 366.433 502.419 367.362Z" fill="#414141"/>
<path d="M371.26 444.734L396.044 459.096L377.659 469.556C372.581 466.599 357.598 458.002 352.799 455.244L371.26 444.734Z" fill="white"/>
<path d="M398.406 429.305L423.191 443.666L399.904 456.909C395.841 454.599 380.834 445.927 375.044 442.598L398.406 429.305Z" fill="white"/>
<path d="M497.035 373.275L522.201 387.413L499.803 400.135C496.248 398.122 481.063 389.351 474.943 385.823L497.035 373.275Z" fill="white"/>
<path d="M444.013 403.315L468.797 417.677L450.412 428.112C446.07 425.628 431.113 417.006 425.552 413.801L444.013 403.315Z" fill="white"/>
<path d="M471.159 387.96L495.943 402.321L472.555 415.565C469.813 414.024 454.221 405.03 447.695 401.253L471.159 387.96Z" fill="white"/>
<path d="M349.015 457.382L373.799 471.743L356.201 481.682C350.919 478.651 336.039 470.078 331.341 467.37L349.015 457.382Z" fill="white"/>
<path d="M421.769 416.037L446.553 430.398L427.076 441.455C422.505 438.97 407.599 430.249 402.215 427.143L421.769 416.037Z" fill="white"/>
<path d="M327.558 469.581L352.342 483.942L329.056 497.186C324.18 494.403 309.325 485.831 304.195 482.874L327.558 469.581Z" fill="white"/>
<path d="M300.386 485.011L325.17 499.372L283.397 523.101L258.207 508.963L300.386 485.011Z" fill="white"/>
<path d="M525.425 391.612L550.591 405.75L518.061 424.236C513.795 421.751 498.838 413.179 493.201 409.924L525.425 391.612Z" fill="white"/>
<path d="M462.246 427.491L487.03 441.853L468.645 452.313C463.719 449.505 448.863 440.933 443.785 438.001L462.246 427.491Z" fill="white"/>
<path d="M416.689 453.406L441.473 467.768L418.187 481.011C413.515 478.352 398.634 469.755 393.327 466.699L416.689 453.406Z" fill="white"/>
<path d="M440.001 440.138L464.785 454.499L445.308 465.556C440.23 462.649 425.323 454.052 420.448 451.244L440.001 440.138Z" fill="white"/>
<path d="M389.493 468.835L414.277 483.197L395.892 493.657C390.204 490.402 375.247 481.756 371.031 479.346L389.493 468.835Z" fill="white"/>
<path d="M367.248 481.483L392.032 495.844L374.434 505.783C368.644 502.478 353.662 493.807 349.574 491.471L367.248 481.483Z" fill="white"/>
<path d="M489.392 412.061L514.176 426.422L490.89 439.641C487.208 437.554 472.048 428.808 466.03 425.329L489.392 412.061Z" fill="white"/>
<path d="M345.79 493.683L370.574 508.044L347.288 521.287C341.905 518.206 326.973 509.609 322.428 506.976L345.79 493.683Z" fill="white"/>
<path d="M343.403 523.474L311.762 541.438L286.597 527.3L318.618 509.087L343.403 523.474Z" fill="white"/>
<path d="M361.94 521.014L380.376 531.723L358.995 543.823L340.279 533.313L361.94 521.014Z" fill="white"/>
<path d="M354.576 546.332L336.394 556.643L317.654 546.158L336.166 535.648L354.576 546.332Z" fill="white"/>
<path d="M556.457 410.471L575.756 420.931L553.867 433.354L534.923 422.695L556.457 410.471Z" fill="white"/>
<path d="M530.835 425.031L549.449 435.84L526.086 449.108L507.168 438.473L530.835 425.031Z" fill="white"/>
<path d="M503.053 440.809L521.641 451.617L384.82 529.188L366.054 518.653L503.053 440.809Z" fill="white"/>
<path style="mix-blend-mode:multiply" d="M564.126 211.996L528.574 232.544C528.574 232.544 539.544 251.378 566.665 262.509L607.955 240.793" fill="url(#paint4_linear_323_1064)"/>
<path d="M592.947 242.483C611.109 242.483 625.832 232.338 625.832 219.823C625.832 207.308 611.109 197.163 592.947 197.163C574.786 197.163 560.062 207.308 560.062 219.823C560.062 232.338 574.786 242.483 592.947 242.483Z" fill="#FF5C87"/>
<path d="M592.973 216.295C606.577 216.295 617.605 211.878 617.605 206.431C617.605 200.983 606.577 196.566 592.973 196.566C579.369 196.566 568.341 200.983 568.341 206.431C568.341 211.878 579.369 216.295 592.973 216.295Z" fill="#974C26"/>
<path d="M594.598 206.654C596.528 203.996 598.483 201.213 600.514 198.082C603.054 194.082 605.593 190.007 607.802 185.783C609.88 182.049 611.655 178.161 613.11 174.155C614.728 169.804 616.026 165.345 616.995 160.812C617.249 159.62 617.452 158.328 617.681 157.234C617.681 156.688 617.681 156.737 617.681 156.812C617.681 156.887 617.681 156.439 617.681 155.768C617.909 153.284 618.062 150.799 618.087 148.464C618.2 140.014 616.531 131.632 613.186 123.841C604.295 136.457 598.3 150.808 595.613 165.906C595.444 166.8 595.283 167.703 595.131 168.614C595.131 168.614 594.877 170.254 594.775 170.925L594.522 173.186C594.403 174.329 594.293 175.48 594.191 176.64C593.836 181.087 593.658 185.535 593.684 189.982C593.887 195.548 594.141 201.114 594.598 206.654ZM605.06 140.165C605.652 139.502 606.27 138.856 606.914 138.227C606.783 138.8 606.783 139.393 606.914 139.966C606.297 139.934 605.68 140.001 605.085 140.165H605.06Z" fill="#999A1C"/>
<path d="M595.233 207.027C595.411 203.772 595.487 200.393 595.461 196.691C595.461 191.945 595.233 187.224 594.801 182.503C594.488 178.26 593.834 174.048 592.846 169.906C591.809 165.385 590.442 160.943 588.757 156.613C588.3 155.47 587.843 154.352 587.335 153.234C587.107 152.712 587.158 152.762 587.208 152.836L586.701 151.917C585.532 149.755 584.339 147.619 583.018 145.556C578.432 138.378 572.381 132.203 565.243 127.418C564.727 142.749 567.612 158.007 573.699 172.142C574.054 172.987 574.418 173.815 574.791 174.627L575.781 176.764L576.822 178.826C577.347 179.853 577.889 180.88 578.448 181.907C580.606 185.833 582.917 189.659 585.38 193.411C588.478 198.107 591.779 202.629 595.233 207.027ZM567.3 145.556C567.435 144.678 567.596 143.85 567.782 143.072C567.953 143.633 568.248 144.15 568.646 144.587C568.149 144.851 567.695 145.186 567.3 145.581V145.556Z" fill="#999A1C"/>
<path d="M595.386 208.766C594.395 206.952 593.329 205.114 592.11 203.101C590.535 200.616 588.859 198.132 587.031 195.647C585.439 193.46 583.673 191.4 581.749 189.485C579.695 187.371 577.488 185.403 575.147 183.596L573.369 182.18C573.064 181.981 573.115 181.981 573.166 182.006L572.582 181.658C571.236 180.863 569.89 180.093 568.494 179.397C563.663 176.968 558.373 175.539 552.953 175.198C557.73 183.624 564.313 190.939 572.252 196.641L573.674 197.66L574.893 198.504L576.137 199.275L578.042 200.418C580.496 201.859 583.036 203.2 585.66 204.443C588.783 206.058 592.059 207.474 595.386 208.766ZM560.037 184.416C559.817 183.903 559.614 183.381 559.428 182.851C559.704 183.101 560.034 183.288 560.393 183.398C560.221 183.717 560.101 184.061 560.037 184.416Z" fill="#999A1C"/>
<path d="M594.598 206.654C596.528 203.996 598.483 201.213 600.514 198.082C603.054 194.082 605.593 190.007 607.802 185.783C609.88 182.049 611.655 178.161 613.11 174.155C614.728 169.804 616.026 165.345 616.995 160.812C617.249 159.62 617.452 158.328 617.681 157.234C617.681 156.688 617.681 156.737 617.681 156.812C617.681 156.887 617.681 156.439 617.681 155.768C617.909 153.284 618.062 150.799 618.087 148.464C618.2 140.014 616.531 131.632 613.186 123.841C604.295 136.457 598.3 150.808 595.613 165.906C595.444 166.8 595.283 167.703 595.131 168.614C595.131 168.614 594.877 170.254 594.775 170.925L594.522 173.186C594.403 174.329 594.293 175.48 594.191 176.64C593.836 181.087 593.658 185.535 593.684 189.982C593.887 195.548 594.141 201.114 594.598 206.654ZM605.06 140.165C605.652 139.502 606.27 138.856 606.914 138.227C606.783 138.8 606.783 139.393 606.914 139.966C606.297 139.934 605.68 140.001 605.085 140.165H605.06Z" fill="#999A1C"/>
<path d="M595.233 207.027C595.411 203.772 595.487 200.393 595.461 196.691C595.461 191.945 595.233 187.224 594.801 182.503C594.488 178.26 593.834 174.048 592.846 169.906C591.809 165.385 590.442 160.943 588.757 156.613C588.3 155.47 587.843 154.352 587.335 153.234C587.107 152.712 587.158 152.762 587.208 152.836L586.701 151.917C585.532 149.755 584.339 147.619 583.018 145.556C578.432 138.378 572.381 132.203 565.243 127.418C564.727 142.749 567.612 158.007 573.699 172.142C574.054 172.987 574.418 173.815 574.791 174.627L575.781 176.764L576.822 178.826C577.347 179.853 577.889 180.88 578.448 181.907C580.606 185.833 582.917 189.659 585.38 193.411C588.478 198.107 591.779 202.629 595.233 207.027ZM567.3 145.556C567.435 144.678 567.596 143.85 567.782 143.072C567.953 143.633 568.248 144.15 568.646 144.587C568.149 144.851 567.695 145.186 567.3 145.581V145.556Z" fill="#999A1C"/>
<path d="M595.386 208.766C594.395 206.952 593.329 205.114 592.11 203.101C590.535 200.616 588.859 198.132 587.031 195.647C585.439 193.46 583.673 191.4 581.749 189.485C579.695 187.371 577.488 185.403 575.147 183.596L573.369 182.18C573.064 181.981 573.115 181.981 573.166 182.006L572.582 181.658C571.236 180.863 569.89 180.093 568.494 179.397C563.663 176.968 558.373 175.539 552.953 175.198C557.73 183.624 564.313 190.939 572.252 196.641L573.674 197.66L574.893 198.504L576.137 199.275L578.042 200.418C580.496 201.859 583.036 203.2 585.66 204.443C588.783 206.058 592.059 207.474 595.386 208.766ZM560.037 184.416C559.817 183.903 559.614 183.381 559.428 182.851C559.704 183.101 560.034 183.288 560.393 183.398C560.221 183.717 560.101 184.061 560.037 184.416Z" fill="#999A1C"/>
<path d="M381.798 586.509C382.058 584.902 382.717 583.382 383.718 582.082C384.718 580.783 386.03 579.743 387.537 579.055L405.947 568.67L434.388 552.544L468.365 533.288L504.526 512.814L539.493 492.937L569.966 475.718L592.439 462.997L604.247 456.313C604.247 456.562 604.654 456.562 604.908 456.487C606.31 456.153 607.776 456.177 609.166 456.558C610.556 456.939 611.822 457.663 612.843 458.662C613.863 459.66 614.604 460.899 614.993 462.259C615.382 463.619 615.407 465.054 615.065 466.426C613.694 471.644 609.148 476.24 604.908 479.421C591.158 489.079 576.809 497.892 561.941 505.808V500.615C571.947 495.248 593.531 483.222 602.571 474.029L598.255 476.513L586.37 483.321L568.468 493.558L546.121 506.329L520.803 520.914L494.242 536.096L467.934 551.128L443.454 565.141L422.453 577.242L406.277 586.485C401.351 589.317 395.993 593.143 390.254 594.237C389.171 594.312 388.084 594.168 387.06 593.813C386.036 593.459 385.098 592.901 384.305 592.176C383.511 591.451 382.879 590.573 382.448 589.598C382.016 588.623 381.795 587.572 381.798 586.509Z" fill="#050817"/>
<path style="mix-blend-mode:multiply" d="M525.73 321.569L487.792 343.683C487.792 343.683 512.703 367.039 541.728 378.99L577 356.454" fill="url(#paint5_linear_323_1064)"/>
<path d="M522.099 305.792V323.16L576.924 356.38L642.744 317.023V302.214" fill="#E54C3C"/>
<path d="M642.744 302.214L586.853 269.491L522.099 305.792L577.99 339.012L642.744 302.214Z" fill="#F5604B"/>
</g>
<defs>
<linearGradient id="paint0_linear_323_1064" x1="373.342" y1="475.941" x2="277.356" y2="555.784" gradientUnits="userSpaceOnUse">
<stop stop-color="#D4A397"/>
<stop offset="1" stop-color="white"/>
</linearGradient>
<linearGradient id="paint1_linear_323_1064" x1="338.68" y1="321.943" x2="257.14" y2="389.774" gradientUnits="userSpaceOnUse">
<stop stop-color="#D4A397"/>
<stop offset="1" stop-color="white"/>
</linearGradient>
<linearGradient id="paint2_linear_323_1064" x1="675.376" y1="380.531" x2="627.249" y2="452.989" gradientUnits="userSpaceOnUse">
<stop offset="0.01" stop-color="#4D4D4D"/>
<stop offset="1" stop-color="white"/>
</linearGradient>
<linearGradient id="paint3_linear_323_1064" x1="765.194" y1="370.816" x2="749.472" y2="394.49" gradientUnits="userSpaceOnUse">
<stop offset="0.01" stop-color="#4D4D4D"/>
<stop offset="1" stop-color="white"/>
</linearGradient>
<linearGradient id="paint4_linear_323_1064" x1="588.199" y1="215.425" x2="553.466" y2="254.318" gradientUnits="userSpaceOnUse">
<stop stop-color="#78B46A"/>
<stop offset="0.03" stop-color="#7F3500"/>
<stop offset="1" stop-color="white"/>
</linearGradient>
<linearGradient id="paint5_linear_323_1064" x1="569.788" y1="320.153" x2="517.815" y2="363.402" gradientUnits="userSpaceOnUse">
<stop stop-color="#D4A397"/>
<stop offset="1" stop-color="white"/>
</linearGradient>
<clipPath id="clip0_323_1064">
<rect width="935" height="652" fill="white"/>
</clipPath>
</defs>
</svg>
