<svg width="397" height="795" viewBox="0 0 397 795" fill="none" xmlns="http://www.w3.org/2000/svg">
<path d="M384.674 187.971V195.971H389V264.721H384.674V272.721V722.091C384.674 730.094 383.105 738.019 380.057 745.412C377.009 752.804 372.542 759.519 366.914 765.173C361.286 770.828 354.606 775.311 347.258 778.369C339.909 781.427 332.035 783 324.083 783H73.0021C65.0504 783 57.1757 781.427 49.8272 778.369C42.4787 775.31 35.7992 770.827 30.1712 765.173C24.5431 759.519 20.0767 752.804 17.0288 745.412C13.9809 738.019 12.4116 730.094 12.4117 722.09V309.576V301.576H8V274.856H12.4117V266.856V248.282V240.282H8V213.561H12.4117V205.561V175.843V167.843H8V155.982H12.4117V147.982V68.9094C12.4117 60.9055 13.981 52.9808 17.0291 45.5881C20.077 38.1956 24.5435 31.4809 30.1717 25.8267C35.7998 20.1725 42.4794 15.6893 49.828 12.6313C57.1765 9.57335 65.0512 7.99995 73.0029 8H324.084C340.141 8.00011 355.549 14.4083 366.914 25.827C378.281 37.2469 384.674 52.7435 384.674 68.9096V187.971Z" stroke="#3F3D56" stroke-width="16"/>
<rect x="377" y="191" width="12" height="92" fill="#3F3D56"/>
<rect x="377" y="191" width="12" height="92" fill="#3F3D56"/>
<rect x="377" y="191" width="12" height="92" fill="#3F3D56"/>
<path d="M325.306 17H292.23C293.751 20.7264 294.331 24.7694 293.921 28.7729C293.51 32.7763 292.12 36.6174 289.873 39.9576C287.627 43.2978 284.593 46.0347 281.038 47.9273C277.484 49.8198 273.518 50.8098 269.491 50.8101H124.326C120.299 50.8098 116.333 49.8198 112.779 47.9273C109.224 46.0347 106.19 43.2978 103.944 39.9576C101.697 36.6173 100.307 32.7763 99.8964 28.7729C99.4854 24.7694 100.066 20.7264 101.587 17H70.6941C56.984 17 43.8354 22.4423 34.1409 32.1295C24.4463 41.8168 19 54.9556 19 68.6555V723.344C19 730.128 20.3371 736.845 22.9349 743.112C25.5328 749.379 29.3406 755.074 34.1409 759.87C38.9411 764.667 44.6398 768.472 50.9116 771.068C57.1835 773.664 63.9056 775 70.6941 775H325.306C339.016 775 352.165 769.558 361.859 759.87C371.554 750.183 377 737.044 377 723.344V68.6555C377 61.872 375.663 55.1549 373.065 48.8878C370.467 42.6206 366.659 36.9262 361.859 32.1295C357.059 27.3329 351.36 23.528 345.088 20.932C338.816 18.3361 332.094 17 325.306 17Z" fill="white" fill-opacity="0.7"/>
<path d="M345.434 273H57.5664C55.5604 272.997 53.6372 272.09 52.2187 270.478C50.8002 268.865 50.0023 266.678 50 264.398V131.602C50.0023 129.322 50.8002 127.135 52.2187 125.522C53.6372 123.91 55.5604 123.003 57.5664 123H345.434C347.44 123.003 349.363 123.91 350.781 125.522C352.2 127.135 352.998 129.322 353 131.602V264.398C352.998 266.678 352.2 268.865 350.781 270.478C349.363 272.09 347.44 272.997 345.434 273Z" fill="#FF065C"/>
<path d="M307.367 353H93.6333C91.6088 353 89.6673 352.157 88.2357 350.657C86.8042 349.157 86 347.122 86 345C86 342.878 86.8042 340.843 88.2357 339.343C89.6673 337.843 91.6088 337 93.6333 337H307.367C309.391 337 311.333 337.843 312.764 339.343C314.196 340.843 315 342.878 315 345C315 347.122 314.196 349.157 312.764 350.657C311.333 352.157 309.391 353 307.367 353Z" fill="#6C63FF"/>
<path d="M345.434 596H57.5664C55.5604 595.997 53.6372 595.09 52.2187 593.477C50.8002 591.865 50.0023 589.678 50 587.398V454.602C50.0023 452.322 50.8002 450.135 52.2187 448.523C53.6372 446.91 55.5604 446.003 57.5664 446H345.434C347.44 446.003 349.363 446.91 350.781 448.522C352.2 450.135 352.998 452.322 353 454.602V587.398C352.998 589.678 352.2 591.865 350.781 593.477C349.363 595.09 347.44 595.997 345.434 596Z" fill="#6C63FF"/>
<rect x="8" y="215" width="12" height="92" fill="#3F3D56"/>
<rect x="8" y="215" width="12" height="92" fill="#3F3D56"/>
<rect x="8" y="215" width="12" height="92" fill="#3F3D56"/>
<rect x="99" y="4" width="194" height="48" rx="24" fill="#3F3D56"/>
<path d="M211.161 30H172.839C172.086 30 171.364 29.7366 170.831 29.2678C170.299 28.7989 170 28.163 170 27.5C170 26.837 170.299 26.2011 170.831 25.7322C171.364 25.2634 172.086 25 172.839 25H211.161C211.914 25 212.636 25.2634 213.169 25.7322C213.701 26.2011 214 26.837 214 27.5C214 28.163 213.701 28.7989 213.169 29.2678C212.636 29.7366 211.914 30 211.161 30Z" fill="white"/>
<path d="M229.5 30C231.433 30 233 28.8807 233 27.5C233 26.1193 231.433 25 229.5 25C227.567 25 226 26.1193 226 27.5C226 28.8807 227.567 30 229.5 30Z" fill="white"/>
</svg>
