<svg width="925" height="694" viewBox="0 0 925 694" fill="none" xmlns="http://www.w3.org/2000/svg">
<path d="M449.273 663.985L33.6702 419.467C20.4427 412.077 9.08836 399.946 21.9921 391.958L439.098 152.551C445.365 148.683 454.869 146.151 461.228 149.834L897.505 401.995C910.732 409.637 913.114 431 899.817 438.665L504.125 663.593C495.807 668.405 486.372 670.972 476.751 671.041C467.131 671.11 457.659 668.677 449.273 663.985Z" fill="#FF9F9F"/>
<path d="M832.037 476.579L778.85 441.359H738.127L655.409 481.551L725.94 537.052C759.587 515.045 795.5 497.366 832.037 476.579Z" fill="url(#paint0_linear_325_1249)"/>
<path d="M643.176 545.225L609.529 535.096L559.324 536.891L480.699 575.864L545.75 616.517C579.512 594.441 611.541 570.086 643.176 545.225Z" fill="url(#paint1_linear_325_1249)"/>
<path d="M536.824 393.615L503.177 383.487L452.973 385.282L374.348 424.255L474.063 487.905C507.64 465.829 536.13 451.165 536.824 393.615Z" fill="url(#paint2_linear_325_1249)"/>
<path d="M393.726 457.312L360.079 447.183L309.875 448.978L231.25 487.951L296.416 528.627C330.04 506.551 362.091 482.173 393.726 457.312Z" fill="url(#paint3_linear_325_1249)"/>
<path d="M103.901 396.861L48.1465 426.902L72.104 443.27L132.391 408.786" fill="url(#paint4_linear_325_1249)"/>
<path d="M99.2757 369.168C99.2757 369.168 95.1826 404.274 113.821 411.064C132.46 417.855 142.45 400.176 142.751 369.168" fill="#68E1FD"/>
<path d="M121.013 381.668C133.018 381.668 142.75 376.072 142.75 369.168C142.75 362.265 133.018 356.668 121.013 356.668C109.008 356.668 99.2754 362.265 99.2754 369.168C99.2754 376.072 109.008 381.668 121.013 381.668Z" fill="#F2696A"/>
<path d="M126.586 341.36C126.586 341.36 118.053 329.09 121.776 320.642C121.776 320.642 124.852 315.186 129.2 314.335C129.2 314.335 128.76 325.96 133.108 324.486C137.455 323.013 133.108 312.309 133.108 312.309C133.108 312.309 137.733 306.163 142.681 306.347C147.63 306.531 142.681 317.212 146.15 315.555C149.619 313.897 146.358 304.689 150.29 303.607C153.87 302.791 157.501 302.214 161.158 301.881C161.158 301.881 164.858 312.493 161.158 314.012C157.458 315.532 152.024 316.038 154.637 318.386C157.25 320.734 164.65 318.041 164.65 318.041C164.65 318.041 165.113 324.003 162.592 326.581C160.071 329.16 145.295 323.451 147.908 328.584C150.521 333.717 160.28 330.886 160.28 330.886C157.346 334.991 153.658 338.506 149.411 341.245C143.537 344.698 126.586 341.36 126.586 341.36Z" fill="#8CCC00"/>
<path d="M128.575 372.046C128.575 372.046 122.424 365.992 123.626 360.789C124.233 358.952 125.491 357.397 127.164 356.415C127.164 356.415 128.159 363.068 130.471 361.756C132.784 360.444 129.176 354.85 129.176 354.85C129.176 354.85 131.119 350.867 133.963 350.453C136.807 350.039 135.119 356.622 136.923 355.241C138.727 353.86 135.882 349.049 137.987 348.013C139.933 347.167 141.934 346.451 143.976 345.872C143.976 345.872 147.214 351.489 145.271 352.778C143.329 354.067 140.299 354.896 142.034 355.955C143.768 357.014 147.676 354.689 147.676 354.689C148.162 356.358 148.072 358.141 147.422 359.753C146.265 361.48 137.27 359.753 139.305 362.446C141.34 365.14 146.612 362.585 146.612 362.585C145.387 365.23 143.669 367.621 141.548 369.629C138.542 372.092 128.575 372.046 128.575 372.046Z" fill="#8CCC00"/>
<path d="M105.913 358.947C105.913 358.947 90.9276 359.523 85.7476 351.834C85.7476 351.834 82.7876 346.332 84.3832 342.212C84.3832 342.212 94.0032 348.819 95.09 344.376C96.1769 339.933 84.7763 337.792 84.7763 337.792C84.7763 337.792 82.0013 330.656 84.7763 326.558C87.5513 322.461 94.0263 332.405 94.35 328.538C94.6738 324.671 85.2619 322.53 86.4644 318.662C87.6937 315.216 89.1539 311.855 90.835 308.603C90.835 308.603 101.796 311.204 101.103 315.117C100.409 319.031 97.9113 323.865 101.311 322.944C104.71 322.023 106.398 314.358 106.398 314.358C106.398 314.358 111.694 317.166 112.549 320.665C113.405 324.164 100.594 333.51 106.352 334.063C112.11 334.615 115.186 325.039 115.186 325.039C117.087 329.706 118.084 334.689 118.123 339.726C117.776 346.471 105.913 358.947 105.913 358.947Z" fill="#8CCC00"/>
<path d="M157.897 306.439L153.111 310.513C153.272 308.833 153.481 307.152 153.735 305.472C153.874 304.574 152.509 304.206 152.371 305.104C152.016 307.344 151.746 309.6 151.561 311.872C147.352 315.532 143.19 319.376 139.328 323.382C138.996 320.524 138.911 317.644 139.074 314.772C139.074 313.874 137.709 313.874 137.663 314.772C137.48 318.093 137.62 321.423 138.079 324.717C135.612 327.379 133.296 330.177 131.142 333.096C128.705 329.748 127.047 325.903 126.286 321.839C126.124 320.941 124.759 321.333 124.921 322.207C125.729 326.526 127.517 330.605 130.147 334.132L130.286 334.27C123.75 342.945 119.966 353.366 119.417 364.196C119.417 365.094 120.805 365.094 120.828 364.196C121.34 353.712 124.97 343.616 131.257 335.191C136.969 336.7 142.889 337.275 148.786 336.894C149.688 336.894 149.688 335.421 148.786 335.49C143.189 335.848 137.571 335.328 132.136 333.948C135.134 329.914 138.427 326.105 141.987 322.553H142.103C145.41 322.852 148.717 323.128 152.024 323.266C154.102 323.564 156.222 323.318 158.175 322.553C158.984 322.138 158.175 320.941 157.458 321.333C155.146 322.484 151.977 321.862 149.526 321.724C147.422 321.609 145.341 321.425 143.236 321.241C148.277 316.268 153.689 311.641 158.915 307.245C159.562 306.853 158.591 305.863 157.897 306.439Z" fill="#06577A"/>
<path d="M114.053 333.856C114.069 333.688 114.025 333.52 113.929 333.381C113.833 333.242 113.69 333.142 113.527 333.098C113.363 333.053 113.189 333.068 113.036 333.14C112.882 333.211 112.759 333.334 112.688 333.487C111.154 338.682 107.964 343.239 103.6 346.47C102.058 342.035 100.594 337.562 99.2063 333.05C102.622 329.659 105.43 325.712 107.508 321.379C107.901 320.573 106.676 319.859 106.283 320.665C104.369 324.644 101.824 328.29 98.7438 331.461C97.2638 326.282 95.9688 321.056 94.8588 315.762C94.6738 314.864 93.3094 315.255 93.4944 316.13C95.0361 323.358 96.8938 330.495 99.0675 337.539C96.3994 337.02 93.8054 336.178 91.3438 335.03C90.5344 334.638 89.7944 335.858 90.6269 336.25C93.46 337.591 96.4628 338.543 99.5531 339.081C101.056 343.685 102.721 348.289 104.502 352.893C100.269 352.761 96.0975 351.847 92.1994 350.2C91.3669 349.854 90.65 351.051 91.4825 351.42C95.7761 353.252 100.386 354.237 105.057 354.32C107.323 359.968 109.821 365.523 112.549 370.987C112.966 371.792 114.168 370.987 113.775 370.273C110.124 362.992 106.881 355.514 104.063 347.875C108.865 344.437 112.38 339.504 114.053 333.856Z" fill="#06577A"/>
<path d="M139.675 352.088L135.79 358.51C135.316 357.876 134.906 357.198 134.565 356.484C134.171 355.656 132.946 356.484 133.339 357.198C133.78 358.108 134.323 358.965 134.958 359.753L130.749 366.797C130.282 366.349 129.981 365.757 129.893 365.117C129.893 364.219 128.367 364.219 128.483 365.117C128.608 366.245 129.162 367.283 130.032 368.017L124.875 376.926C124.809 377.085 124.804 377.263 124.859 377.426C124.914 377.589 125.027 377.727 125.176 377.813C125.325 377.9 125.501 377.931 125.671 377.899C125.841 377.867 125.994 377.775 126.101 377.64L133.038 366.13C134.203 366.08 135.352 365.839 136.438 365.416C137.293 365.14 136.923 363.782 136.068 364.058C135.354 364.282 134.617 364.422 133.871 364.472L140.808 352.709C140.816 352.575 140.786 352.441 140.72 352.323C140.655 352.205 140.557 352.108 140.439 352.043C140.32 351.978 140.185 351.947 140.05 351.955C139.915 351.963 139.785 352.009 139.675 352.088Z" fill="#06577A"/>
<path d="M494.366 374.256L494.204 357.957L479.774 357.359L476.722 381.852C476.722 381.852 491.267 383.21 494.366 374.256Z" fill="#FFBEB3"/>
<path d="M477.439 194.539C475.295 212.876 474.291 231.327 474.433 249.787C475.126 274.579 472.12 355.471 472.12 355.471C472.12 355.471 491.36 364.679 502.923 359.247C502.923 359.247 507.548 305.426 508.126 287.632C508.704 269.837 505.05 196.081 505.05 196.081" fill="#68E1FD"/>
<path d="M494.366 374.256C494.366 374.256 485.324 381.162 479.058 379.527C479.058 379.527 481.532 372.621 479.774 370.319C478.017 368.017 476.768 369.836 475.751 372.276C474.913 374.266 473.883 376.17 472.675 377.962C472.457 378.207 472.208 378.424 471.935 378.607C465.946 386.295 450.984 383.464 452.418 392.672C452.718 394.674 457.181 396.792 458.893 397.276C461.933 397.996 465.102 397.996 468.143 397.276C476.121 395.112 477.901 390.047 484.978 391.682C492.054 393.316 494.228 389.61 495.338 387.078C496.448 384.546 494.366 374.256 494.366 374.256Z" fill="#050817"/>
<path d="M517.167 348.68C519.966 366.981 523.712 395.112 523.55 397.644C523.319 401.235 530.141 415.83 535.737 396.93C535.737 396.93 536.292 367.211 536.061 349.095C529.76 349.297 523.453 349.159 517.167 348.68Z" fill="#FFBEB3"/>
<path d="M518.925 400.521C518.925 400.521 517.931 394.859 521.77 394.513C525.608 394.168 530.002 394.974 530.534 398.058C530.871 400.269 531.071 402.499 531.135 404.734C531.135 404.734 535.76 390.922 536.893 390.922C538.026 390.922 539.483 395.526 539.391 397.299C538.854 403.386 537.951 409.436 536.685 415.415C535.714 418.132 529.748 427.777 521.492 428.997C513.236 430.217 508.866 425.084 510.207 421.354C511.548 417.625 518.856 410.604 518.925 400.521Z" fill="#050817"/>
<path d="M492.956 201.422C492.956 201.422 497.974 266.822 500.055 287.839C502.136 308.856 512.658 379.228 512.658 379.228C512.658 379.228 529.216 383.694 543.391 377.57C543.391 377.57 537.772 267.788 534.604 240.21C530.441 204.069 523.041 186.551 523.041 186.551" fill="#68E1FD"/>
<path d="M518 131.51C518 131.51 549.057 127.643 552.688 124.742C556.318 121.842 555.185 84.3886 555.624 81.465C556.064 78.5415 566.007 76.1704 567.742 79.3472C569.476 82.5239 574.217 120.323 571.812 130.221C569.407 140.12 520.636 160.93 520.636 160.93L518 131.51Z" fill="#FFBEB3"/>
<path d="M475.797 129.508C473.253 133.789 466.547 158.904 466.547 158.904L456.996 138.186C454.568 132.789 451.85 127.525 448.856 122.417L438.057 126.584C444 144.448 448.555 162.081 458.291 178.402C459.095 179.501 460.071 180.465 461.182 181.256C471.125 187.472 482.549 179.162 484.607 177.182L492.77 123.707C491.152 121.174 478.34 125.226 475.797 129.508Z" fill="#FFBEB3"/>
<path d="M523.781 133.997C512.245 129.834 500.301 126.894 488.145 125.226H486.619C484.757 134.603 480.806 143.445 475.057 151.1C480.26 152.942 510.461 161.552 521.538 163.9C535.968 131.695 531.597 144.056 523.781 133.997Z" fill="#FFBEB3"/>
<path d="M450.036 124.236C450.036 124.236 451.423 109.549 449.897 108.352C448.371 107.155 446.775 108.905 446.775 108.905C446.54 107.809 445.969 106.813 445.14 106.054C444.312 105.295 443.267 104.811 442.15 104.669C438.288 104.37 431.536 110.125 430.911 113.118C430.287 116.11 438.589 127.275 438.589 127.275L450.036 124.236Z" fill="#FFBEB3"/>
<path d="M556.55 82.9152C556.55 82.9152 553.358 76.3776 551.925 73.4771C550.491 70.5766 554.237 68.0904 554.237 68.0904C554.067 67.2977 554.068 66.478 554.239 65.6856C554.411 64.8931 554.749 64.1459 555.232 63.4933C555.715 62.8406 556.332 62.2974 557.041 61.8994C557.751 61.5014 558.537 61.2577 559.348 61.1844C565.499 60.3557 569.315 60.7701 571.118 64.2921C572.922 67.8142 567.696 80.6133 567.696 80.6133" fill="#FFBEB3"/>
<path d="M496.424 122.187C495.407 122.026 481.763 121.013 475.797 128.932C472.084 133.999 469.16 139.594 467.125 145.53L478.294 153.633L475.103 205.796C475.103 205.796 490.504 214.29 502.599 213.139C514.693 211.988 528.684 205.036 528.684 205.036V156.165L550.121 145.553L545.611 125.64C545.611 125.64 523.18 128.886 519.203 128.403C515.225 127.919 515.294 125.157 496.424 122.187Z" fill="#FFC866"/>
<path d="M513.606 109.526L496.216 113.647V131.027C498.71 132.567 501.574 133.41 504.508 133.467C507.443 133.524 510.338 132.792 512.889 131.349C513.105 124.075 513.344 116.801 513.606 109.526Z" fill="#EFA49A"/>
<path d="M537.934 85.1251C537.736 83.6975 537.254 82.3236 536.516 81.084C535.778 79.8443 534.799 78.7639 533.636 77.9061C532.473 77.0484 531.149 76.4306 529.743 76.0891C528.336 75.7475 526.875 75.6891 525.446 75.9171C523.215 76.1179 521.058 76.8108 519.129 77.9457C517.201 79.0805 515.552 80.6288 514.3 82.4778C504.541 78.4493 493.21 82.6159 488.677 88.5781C487.047 90.4231 486.147 92.7964 486.147 95.2539C486.147 97.7114 487.047 100.085 488.677 101.93L506.437 122.049C509.606 121.354 512.702 120.367 515.687 119.103C520.752 116.801 524.937 107.109 524.937 98.3846C526.822 98.7515 528.77 98.6084 530.58 97.9702C533.11 97.0072 535.225 95.2004 536.566 92.8579C537.907 90.5155 538.391 87.7826 537.934 85.1251Z" fill="#050817"/>
<path d="M488.608 101.93C488.608 101.93 489.048 127.436 496.032 129.093C498.633 129.601 501.329 129.27 503.729 128.148C506.128 127.026 508.106 125.172 509.375 122.855C510.107 121.425 510.517 119.854 510.577 118.251C510.577 118.251 517.075 115.419 515.919 111.667C514.763 107.915 510.762 112.887 509.698 112.358C508.408 111.932 507.301 111.083 506.558 109.95C505.814 108.817 505.479 107.467 505.605 106.119C505.467 101.262 494.875 106.303 488.608 101.93Z" fill="#FFBEB3"/>
<path d="M334.04 203.908C334.04 203.908 314.847 167.514 335.89 167.859L381.146 139.475L381.493 106.557L391.344 100.687C391.344 100.687 402.375 134.204 400.247 146.243C398.12 158.283 367.687 180.888 360.149 185.999C349.974 192.882 334.04 203.908 334.04 203.908Z" fill="#FFBEB3"/>
<path d="M342.019 163.255L363.27 149.374L374.648 176.998L363.27 193.457" fill="#68E1FD"/>
<path d="M344.562 443.684C344.201 444.764 344.092 445.913 344.245 447.042C344.397 448.171 344.806 449.251 345.441 450.198C347.638 452.684 371.966 465.737 383.412 462.583C394.859 459.429 393.587 455.677 393.472 453.789" fill="#2648A9"/>
<path d="M310.407 457.058C309.539 459.572 309.419 462.282 310.06 464.862C311.17 468.891 321.415 486.133 330.41 487.514C339.406 488.895 347.87 486.593 347.361 479.273" fill="#2648A9"/>
<path d="M336.746 355.31C336.746 355.31 332.538 377.709 331.566 385.236C330.595 392.764 326.941 452.316 326.941 452.316C326.941 452.316 318.963 463.251 315.24 460.58C311.517 457.91 308.511 409.937 310.291 390.738C312.072 371.539 315.564 344.215 315.564 344.215" fill="#FFBEB3"/>
<path d="M367.017 333.51C367.48 334.546 359.941 437.422 359.941 437.422C359.941 437.422 354.183 443.868 347.407 440.231C347.407 440.231 338.735 370.664 347.731 342.603" fill="#FFBEB3"/>
<path d="M317.298 249.626C317.298 249.626 309.089 286.872 307.794 300.269C306.499 313.667 308.372 361.019 308.372 361.019C308.372 361.019 335.081 375.015 344.609 353.307C344.609 353.307 349.974 359.431 372.22 346.401C372.22 346.401 372.821 273.129 365.167 257.222C357.512 241.315 319.611 243.64 317.298 249.626Z" fill="#050817"/>
<path d="M307.725 170.391C300.113 174.863 294.567 182.128 292.277 190.626C288.369 204.967 280.437 233.028 279.443 237.402C278.448 241.776 275.28 278.263 275.28 278.263C275.28 278.263 271.372 289.772 271.372 292.857C271.514 295.485 271.925 298.093 272.598 300.638C272.598 300.638 277.223 304.781 279.535 304.781C281.848 304.781 288.323 303.815 288.577 302.341C288.831 300.868 283.698 298.934 284.415 295.044C285.131 291.154 288.022 291.154 289.641 292.742C291.26 294.33 293.202 290.785 293.202 290.785C293.202 290.785 287.328 283.741 284.415 280.818C284.415 280.818 295.168 242.996 297.11 237.471C299.053 231.946 306.615 214.589 308.95 213.047C311.286 211.505 319.588 214.428 325.693 196.427C331.798 178.425 307.725 170.391 307.725 170.391Z" fill="#FFBEB3"/>
<path d="M365.953 182.914C365.259 174.857 362.207 165.142 353.419 162.587C350.755 161.899 347.979 161.75 345.256 162.15L334.619 163.738L320.883 165.787C320.883 165.787 310.106 167.375 307.748 170.391C307.748 170.391 320.859 176.837 320.304 190.833C319.934 200.639 315.841 213.853 308.881 213.139C308.881 213.139 311.332 258.028 314.153 264.496C314.153 264.496 345.256 271.587 367.04 256.808C367.04 256.831 367.341 198.844 365.953 182.914Z" fill="#68E1FD"/>
<path d="M324.999 149.374C325.376 152.562 325.376 155.784 324.999 158.973C324.324 161.622 322.894 164.02 320.882 165.879C320.882 165.879 335.335 183.858 346.713 181.993C358.09 180.128 342.088 163.439 342.088 163.439C342.088 163.439 343.337 163.83 343.152 158.628" fill="#FFBEB3"/>
<path d="M314.014 445.019C314.014 445.019 315.286 457.933 317.645 455.401C320.004 452.869 316.813 445.111 320.998 445.272C325.184 445.433 327.658 444.466 328.121 446.4C328.583 448.334 333.278 462.514 340.377 468.407C347.476 474.3 350.483 480.608 343.337 481.022C341.49 481.243 339.763 482.05 338.411 483.324C336.423 485.327 327.913 484.153 324.375 480.377C320.836 476.602 310.5 460.396 310.5 457.081C310.5 453.766 310.823 445.778 314.014 445.019Z" fill="#050817"/>
<path d="M357.836 438.734C357.836 438.734 355.686 433.463 358.067 432.45C360.449 431.437 362.831 430.148 364.011 431.575C365.19 433.002 365.907 435.903 366.832 436.755C367.757 437.606 388.153 447.666 391.206 450.567C394.258 453.467 393.634 455.309 392.709 454.733C391.784 454.158 390.558 453.329 389.957 454.733C389.356 456.137 389.448 461.018 385.609 460.764C381.771 460.511 374.324 461.179 370.185 457.749C366.046 454.319 355.616 451.695 351.685 449.853C347.754 448.011 344.562 446.308 344.562 443.684C344.562 441.059 344.863 432.611 346.574 432.335C348.286 432.059 347.684 437.1 350.39 438.435C352.798 439.209 355.373 439.312 357.836 438.734Z" fill="#050817"/>
<path d="M342.25 163.416L342.111 163.255L330.549 152.942L326.062 156.487C327.157 157.952 328.339 159.351 329.601 160.677C333.509 164.038 338.689 166.823 342.25 163.416Z" fill="#CC7158"/>
<path d="M352.61 122.326C351.665 121.305 350.417 120.611 349.049 120.346C348.753 119.849 348.404 119.386 348.008 118.965C346.438 117.256 344.27 116.21 341.949 116.041C341.084 115.991 340.22 116.149 339.429 116.501C338.098 115.705 336.604 115.217 335.058 115.074C333.487 114.927 331.913 115.316 330.595 116.179C328.413 115.366 325.999 115.432 323.866 116.363C322.395 117.033 321.18 118.155 320.397 119.563C319.153 119.789 317.977 120.291 316.956 121.033C315.935 121.774 315.096 122.735 314.5 123.845C314.025 124.649 313.718 125.542 313.599 126.467C313.48 127.393 313.55 128.334 313.806 129.232C313.097 130.193 312.662 131.327 312.548 132.515C312.434 133.703 312.645 134.899 313.159 135.976C313.617 136.942 314.28 137.798 315.101 138.486C315.085 138.715 315.085 138.946 315.101 139.176C315.596 142.307 316.755 145.296 318.501 147.947C319.24 149.052 320.092 150.078 321.044 151.008C321.669 151.63 322.316 152.205 322.987 152.781C323.657 153.356 323.519 153.656 323.449 153.149C323.528 153.893 323.815 154.6 324.277 155.19C324.739 155.78 325.357 156.229 326.062 156.487C329.156 154.458 331.572 151.557 333 148.154C333.081 148.005 333.202 147.881 333.348 147.794C333.495 147.707 333.662 147.662 333.832 147.662C334.003 147.662 334.17 147.707 334.317 147.794C334.463 147.881 334.583 148.005 334.665 148.154L347.245 134.756C348.751 134.416 350.145 133.698 351.295 132.671C352.444 131.643 353.311 130.341 353.812 128.886C354.2 127.783 354.294 126.598 354.083 125.448C353.872 124.297 353.364 123.222 352.61 122.326Z" fill="#583228"/>
<path d="M350.644 131.027C351.315 129.738 355.639 160.815 345.557 163.025C335.474 165.235 329.762 153.241 329.762 153.241C329.762 153.241 320.189 147.832 325.137 144.448C330.086 141.064 332.352 145.76 332.352 145.76C332.352 145.76 330.04 132.385 336.307 133.513C342.574 134.641 347.985 136.114 350.644 131.027Z" fill="#FFBEB3"/>
<path d="M308.372 360.973L309.644 435.604C309.644 435.604 325.022 438.826 335.821 435.604L343.661 358.51L341.348 423.38C341.348 423.38 355.755 427.386 366.925 423.081L372.313 346.378" fill="#050817"/>
<path d="M310.707 168.434C310.707 168.434 298.636 174.65 293.456 185.699C289.502 194.148 283.859 211.021 283.859 211.021L303.585 222.232L312.465 214.29C312.465 214.29 323.403 200.478 323.704 192.559C324.004 184.64 320.559 168.941 310.707 168.434Z" fill="#68E1FD"/>
<path d="M381.562 106.557C381.562 106.557 374.463 99.1674 374.625 96.9575C374.718 96.2994 374.979 95.6762 375.384 95.148C375.789 94.6198 376.324 94.2044 376.937 93.9419C376.937 93.9419 374.625 88.325 379.759 86.3223C384.892 84.3195 392.847 84.0203 393.842 86.3223C394.836 88.6243 391.344 100.687 391.344 100.687C391.344 100.687 385.031 110.539 381.562 106.557Z" fill="#FFBEB3"/>
<path d="M641.164 143.343C633.186 143.481 623.473 137.588 622.502 129.185C623.156 129.227 623.813 129.227 624.467 129.185C629.324 128.978 637.14 125.456 637.302 119.678C637.464 113.9 629.902 113.325 625.947 114.913C624.089 115.67 622.456 116.888 621.205 118.452C619.954 120.015 619.127 121.872 618.802 123.845C617.811 123.366 616.887 122.762 616.05 122.049C612.905 119.253 610.802 115.481 610.084 111.345C609.735 109.594 609.665 107.8 609.876 106.027C611.766 106.668 613.793 106.796 615.749 106.396C620.629 105.406 626.849 99.2365 622.386 94.3102C618.663 90.1666 612.119 92.7679 609.159 96.359C608.462 97.2141 607.857 98.14 607.355 99.1214C605.607 97.2436 604.64 94.7754 604.649 92.2154C604.672 90.0476 605.208 87.9157 606.212 85.9921C607.217 84.0685 608.662 82.4073 610.431 81.1428C612.558 79.4854 609.575 76.5388 607.471 78.1963C604.574 80.3401 602.428 83.3365 601.337 86.7613C600.245 90.1861 600.263 93.8658 601.389 97.2798C602.261 99.736 603.768 101.92 605.759 103.61C603.84 113.233 609.39 124.858 618.524 128.196C618.658 130.512 619.223 132.783 620.189 134.894C622.095 138.782 625.093 142.035 628.821 144.258C632.548 146.481 636.844 147.579 641.187 147.417C641.646 147.305 642.054 147.042 642.345 146.671C642.636 146.3 642.793 145.842 642.79 145.371C642.787 144.9 642.625 144.444 642.33 144.076C642.035 143.708 641.624 143.45 641.164 143.343ZM622.849 124.581L625.161 120.323H625.346C625.925 119.652 626.632 119.104 627.426 118.708C628.22 118.313 629.085 118.079 629.971 118.021C630.445 117.896 630.948 117.937 631.395 118.138C631.841 118.34 632.204 118.689 632.422 119.126C632.464 119.315 632.464 119.512 632.422 119.701C633.001 121.612 629.37 123.592 628.376 124.052C626.606 124.867 624.651 125.201 622.71 125.019C622.779 124.858 622.802 124.72 622.826 124.581H622.849ZM615.587 96.4741C615.974 96.3154 616.398 96.2722 616.809 96.3499C617.22 96.4276 617.599 96.6227 617.9 96.9115C620.212 98.7991 617.761 101.515 615.449 102.16C614.007 102.581 612.474 102.581 611.032 102.16C612.396 99.6969 614.524 96.0827 615.587 96.4741Z" fill="#0088FF"/>
<path d="M260.573 187.15C252.594 187.288 242.882 181.395 241.911 172.992C242.565 173.034 243.222 173.034 243.876 172.992C248.733 172.785 256.549 169.263 256.711 163.485C256.873 157.707 249.311 157.132 245.356 158.72C243.487 159.478 241.846 160.702 240.59 162.274C239.335 163.847 238.507 165.714 238.188 167.698C237.197 167.219 236.272 166.615 235.436 165.902C232.291 163.107 230.188 159.334 229.469 155.198C229.121 153.447 229.051 151.653 229.261 149.88C231.151 150.521 233.179 150.649 235.135 150.249C240.014 149.259 246.235 143.09 241.772 138.163C238.049 134.02 231.504 136.621 228.544 140.212C227.847 141.067 227.243 141.993 226.741 142.974C224.993 141.097 224.026 138.628 224.035 136.068C224.058 133.901 224.594 131.769 225.598 129.845C226.602 127.922 228.047 126.26 229.816 124.996C231.944 123.338 228.961 120.392 226.856 122.049C223.96 124.193 221.814 127.189 220.722 130.614C219.631 134.039 219.649 137.719 220.774 141.133C221.646 143.589 223.154 145.773 225.145 147.463C223.226 157.086 228.776 168.711 237.91 172.049C238.044 174.365 238.609 176.636 239.575 178.747C241.48 182.635 244.479 185.888 248.207 188.111C251.934 190.334 256.23 191.432 260.573 191.27C261.057 191.182 261.494 190.927 261.809 190.551C262.124 190.174 262.296 189.7 262.296 189.21C262.296 188.72 262.124 188.246 261.809 187.869C261.494 187.493 261.057 187.238 260.573 187.15ZM242.258 168.388L244.57 164.13H244.755C245.334 163.459 246.041 162.911 246.835 162.515C247.629 162.12 248.494 161.886 249.38 161.828C249.854 161.703 250.357 161.744 250.803 161.945C251.25 162.147 251.613 162.496 251.831 162.933C251.873 163.122 251.873 163.319 251.831 163.508C252.409 165.419 248.779 167.399 247.784 167.859C246.015 168.674 244.06 169.008 242.119 168.826C242.188 168.642 242.211 168.527 242.234 168.388H242.258ZM234.996 140.281C235.383 140.122 235.807 140.079 236.218 140.157C236.629 140.235 237.008 140.43 237.309 140.718C239.621 142.606 237.17 145.322 234.858 145.967C233.416 146.388 231.883 146.388 230.441 145.967C231.805 143.481 233.909 139.821 234.996 140.281Z" fill="#FF5C87"/>
<path d="M669.654 191.638C667.827 189.89 665.415 188.878 662.882 188.797C660.349 188.716 657.876 189.573 655.941 191.201C652.588 194.148 657.513 199.028 660.843 196.081C662.208 194.884 664.566 196.081 665.468 197.278C667.295 199.58 667.018 203.263 666.625 205.98C666.402 206.849 666.516 207.77 666.944 208.559C667.373 209.349 668.084 209.948 668.937 210.239C669.811 210.484 670.746 210.38 671.545 209.951C672.344 209.521 672.943 208.799 673.215 207.937C674.186 202.251 674.233 195.713 669.654 191.638Z" fill="#FF5C87"/>
<path d="M372.613 53.565C364.635 50.4803 355.593 57.1561 355.455 65.4202C355.455 69.8631 362.392 69.8631 362.392 65.4202C362.469 64.4662 362.77 63.5434 363.27 62.726C363.77 61.9086 364.456 61.2193 365.272 60.7134C366.089 60.2075 367.013 59.8992 367.97 59.8131C368.928 59.727 369.892 59.8656 370.786 60.2177C374.949 61.8291 376.753 55.1533 372.613 53.565Z" fill="#A033FF"/>
<path d="M452.209 51.5852C451.29 51.5852 450.407 51.949 449.757 52.5966C449.106 53.2441 448.741 54.1224 448.741 55.0382C448.741 55.954 449.106 56.8323 449.757 57.4798C450.407 58.1274 451.29 58.4912 452.209 58.4912C453.129 58.4912 454.012 58.1274 454.662 57.4798C455.313 56.8323 455.678 55.954 455.678 55.0382C455.678 54.1224 455.313 53.2441 454.662 52.5966C454.012 51.949 453.129 51.5852 452.209 51.5852Z" fill="#FF5C87"/>
<path d="M432.137 210.1C431.217 210.1 430.334 210.464 429.684 211.112C429.033 211.759 428.668 212.638 428.668 213.553C428.668 214.469 429.033 215.347 429.684 215.995C430.334 216.643 431.217 217.006 432.137 217.006C433.057 217.006 433.939 216.643 434.59 215.995C435.24 215.347 435.605 214.469 435.605 213.553C435.605 212.638 435.24 211.759 434.59 211.112C433.939 210.464 433.057 210.1 432.137 210.1Z" fill="#0088FF"/>
<path d="M600.348 162.979L592 175.478C589.525 179.208 595.538 182.661 597.989 178.954L606.291 166.455C608.812 162.84 602.799 159.272 600.348 162.979Z" fill="#A033FF"/>
<path d="M291.814 107.593L285.085 102.459C284.289 102.005 283.346 101.881 282.459 102.113C281.572 102.346 280.812 102.917 280.344 103.702C279.906 104.498 279.791 105.432 280.023 106.31C280.256 107.188 280.818 107.944 281.593 108.421L288.323 113.555C289.118 114.009 290.062 114.133 290.949 113.901C291.836 113.668 292.595 113.097 293.063 112.312C293.502 111.516 293.617 110.582 293.384 109.704C293.152 108.826 292.59 108.07 291.814 107.593Z" fill="#0088FF"/>
<path d="M510.346 34.2051C508.473 30.1766 502.483 33.6756 504.356 37.6811C504.666 38.5717 504.784 39.5172 504.703 40.4562C504.622 41.3952 504.344 42.3068 503.886 43.1317C503.428 43.9566 502.801 44.6764 502.045 45.2444C501.29 45.8124 500.422 46.2159 499.5 46.4287C495.037 47.4646 490.782 43.8274 489.302 39.891C487.822 35.9546 481.046 37.589 482.619 41.7326C485.556 49.5594 493.904 55.7518 502.506 52.7361C504.294 52.098 505.929 51.0973 507.307 49.7974C508.686 48.4975 509.778 46.9268 510.515 45.1847C511.252 43.4427 511.618 41.5672 511.588 39.6772C511.559 37.7872 511.136 35.9238 510.346 34.2051Z" fill="#A033FF"/>
<path d="M544.571 285.583C544.571 285.583 535.945 282.061 535.552 280.979C533.804 278.248 531.798 275.689 529.563 273.336C529.032 273.931 528.71 274.681 528.643 275.473C528.576 276.266 528.769 277.059 529.193 277.733C530.603 279.506 531.736 280.449 531.251 281.094C530.765 281.738 513.098 273.704 512.242 273.797C511.386 273.889 511.687 276.605 513.653 277.917L516.844 279.874C516.844 279.874 511.988 278.654 511.78 279.321C511.693 279.996 511.854 280.679 512.232 281.245C512.61 281.811 513.18 282.224 513.838 282.406C513.838 282.406 511.525 282.959 513.56 284.57C514.352 285.347 515.319 285.923 516.381 286.25C516.381 286.25 514.323 286.25 515.063 287.747C515.803 289.243 521.099 289.243 522.232 289.795C528.939 291.715 535.791 293.093 542.721 293.916C546.675 293.87 544.571 285.583 544.571 285.583Z" fill="#FFB5A9"/>
<path d="M564.25 219.216C561.873 215.9 559.294 212.733 556.526 209.732C555.023 208.673 544.039 206.947 542.975 205.497C541.911 204.046 551.346 203.563 552.387 203.885C553.427 204.207 541.795 193.02 542.72 190.695C543.645 188.37 553.312 198.683 553.312 198.683C553.312 198.683 544.062 187.449 545.519 185.907C546.975 184.364 554.491 195.667 555.578 195.483C556.665 195.299 551.138 187.081 552.872 185.63C554.607 184.18 560.712 195.736 560.712 195.736C560.712 195.736 560.712 188.715 562.076 188.462C563.44 188.209 563.88 198.867 564.088 200.087C564.296 201.307 572.39 213.899 572.39 213.899" fill="#FFB5A9"/>
<path d="M607.078 244.147C604.904 242.489 567.765 206.049 567.765 206.049C567.765 206.049 559.301 208.926 558.515 214.704C558.515 214.704 583.652 253.125 591.445 258.442" fill="#DD582A"/>
<path d="M623.242 543.821L632.099 538.94L629.786 526.348C629.786 526.348 616.582 527.591 615.426 532.264" fill="#003B94"/>
<path d="M619.912 543.636C617.923 542.416 615.819 541.334 613.784 540.229C608.65 537.444 601.273 534.543 598.105 529.318C597.461 528.261 597.155 527.034 597.23 525.8C597.304 524.566 597.755 523.384 598.521 522.412C603.146 516.818 613.321 526.003 618.524 519.811C619.565 518.591 620.028 499.093 620.028 499.093L639.8 504.387C639.8 504.387 643.153 543.521 642.76 545.823C642.366 548.125 635.591 550.542 635.591 550.542C633.565 550.117 631.631 549.338 629.879 548.24C627.798 546.744 629.694 528.443 627.058 530.998C624.421 533.554 623.265 543.59 623.265 543.59C622.154 543.744 621.027 543.759 619.912 543.636Z" fill="#68E1FD"/>
<path d="M585.409 562.697L594.266 557.817L591.954 545.225C591.954 545.225 578.75 546.468 577.593 551.141" fill="#003B94"/>
<path d="M582.079 562.513C580.091 561.292 577.986 560.211 575.951 559.106C570.818 556.32 563.441 553.42 560.273 548.194C559.628 547.137 559.323 545.91 559.397 544.676C559.472 543.443 559.922 542.261 560.689 541.288C565.314 535.694 575.489 544.879 580.692 538.687C581.733 537.467 582.195 517.969 582.195 517.969L601.967 523.264C601.967 523.264 605.32 562.397 604.927 564.699C604.534 567.001 597.758 569.419 597.758 569.419C595.732 568.993 593.799 568.214 592.046 567.117C589.965 565.62 591.861 547.319 589.225 549.875C586.589 552.43 585.433 562.467 585.433 562.467C584.321 562.62 583.195 562.635 582.079 562.513Z" fill="#68E1FD"/>
<path d="M649.813 435.811L655.525 513.319C655.525 513.319 646.275 526.049 615.148 518.982L614.848 466.704" fill="#06577A"/>
<path d="M613.761 451.165C614.431 457.841 613.761 531.459 613.761 531.459C613.761 531.459 605.158 547.573 567.696 531.459L568.228 468.914" fill="#06577A"/>
<path d="M646.621 455.7C636.917 461.313 626.617 465.837 615.911 469.19H615.68C615.424 469.068 615.147 468.998 614.863 468.985C614.58 468.972 614.297 469.017 614.031 469.116C613.765 469.215 613.523 469.366 613.317 469.561C613.112 469.755 612.948 469.99 612.836 470.249C606.219 472.209 599.484 473.747 592.671 474.853C583.929 476.257 576.668 469.811 567.719 469.351C567.719 435.12 567.557 337.631 582.195 317.028L625.462 302.618C625.67 306.163 646.483 330.242 645.974 359.454C645.643 385.421 646.925 411.383 649.813 437.192" fill="#06577A"/>
<path d="M578.125 277.595L582.126 316.867C582.126 316.867 614.501 318.179 628.376 308.603V275.293" fill="#DD582A"/>
<path d="M598.683 241.776C598.683 241.776 583.421 245.873 577.246 255.726C572.482 263.3 569.985 290.854 569.985 290.854L542.906 282.982C541.799 287.258 539.673 291.206 536.708 294.492C536.708 294.492 552.896 305.587 567.025 308.626C581.154 311.664 596.186 287.701 596.186 287.701C596.186 287.701 599.307 297.645 598.683 287.033" fill="#DD582A"/>
<path d="M588.97 279.552C593.418 275.93 596.765 271.148 598.637 265.74C600.463 259.524 598.174 254.069 596.023 248.291C593.713 242.602 592.353 236.576 592 230.45C591.815 224.396 592.508 218.365 592.925 212.333C592.984 212.076 592.984 211.808 592.925 211.551C594.96 204.645 599.145 198.982 607.378 198.268C628.699 196.473 629.902 219.976 629.74 229.529C629.578 239.083 628.56 245.643 635.613 249.557C642.667 253.47 647.8 264.036 641.048 272.577C634.295 281.117 640.354 277.963 644.863 285.491C649.373 293.018 648.193 302.41 638.967 305.817C629.74 309.224 586.82 302.825 582.865 298.911C581.467 297.318 580.745 295.246 580.853 293.133C581.811 287.775 584.697 282.947 588.97 279.552Z" fill="#FFC866"/>
<path d="M799.223 456.759C794.395 451.656 790.088 446.089 786.366 440.139C783.666 436.591 781.507 432.666 779.96 428.491L759.911 413.413L749.25 320.688L733.062 317.005V444.213L810.577 489.217L839.183 472.988L834.558 469.489C821.839 468.315 808.519 465.645 799.223 456.759Z" fill="#68E1FD"/>
<path d="M717.916 330.426L721.754 328.239L774.525 298.244L746.221 254.138L717.916 330.426Z" fill="#464DAA"/>
<path d="M807.548 453.79C785.302 437.468 770.248 417.556 764.906 390.347C761.807 374.578 759.31 358.694 757.09 342.787C755.031 328.943 754.126 314.953 754.384 300.96L738.659 304.252C737.364 307.06 738.89 313.276 739.075 316.222C739.7 325.638 740.601 335.03 741.711 344.376C744.556 368.201 748.371 392.464 756.35 415.185C767.056 445.71 796.703 470.203 828.037 478.72L844.063 470.387C833.888 467.164 815.804 459.798 807.548 453.79Z" fill="#464DAA"/>
<path d="M746.221 254.138H738.127L709.799 326.927L717.916 330.426" fill="#68E1FD"/>
<defs>
<linearGradient id="paint0_linear_325_1249" x1="725.686" y1="497.159" x2="777.087" y2="445.153" gradientUnits="userSpaceOnUse">
<stop stop-color="#FFC49E" stop-opacity="0"/>
<stop offset="1" stop-color="#C1272D"/>
</linearGradient>
<linearGradient id="paint1_linear_325_1249" x1="536.8" y1="579.778" x2="620.436" y2="519.15" gradientUnits="userSpaceOnUse">
<stop stop-color="#FFC49E" stop-opacity="0"/>
<stop offset="1" stop-color="#C1272D"/>
</linearGradient>
<linearGradient id="paint2_linear_325_1249" x1="441.873" y1="443.96" x2="525.508" y2="383.309" gradientUnits="userSpaceOnUse">
<stop stop-color="#FFC49E" stop-opacity="0"/>
<stop offset="1" stop-color="#C1272D"/>
</linearGradient>
<linearGradient id="paint3_linear_325_1249" x1="287.351" y1="491.888" x2="370.987" y2="431.26" gradientUnits="userSpaceOnUse">
<stop stop-color="#FFC49E" stop-opacity="0"/>
<stop offset="1" stop-color="#C1272D"/>
</linearGradient>
<linearGradient id="paint4_linear_325_1249" x1="69.6527" y1="431.023" x2="105.978" y2="407.599" gradientUnits="userSpaceOnUse">
<stop stop-color="#FFC49E" stop-opacity="0"/>
<stop offset="1" stop-color="#C1272D"/>
</linearGradient>
</defs>
</svg>
