<svg width="761" height="443" viewBox="0 0 761 443" fill="none" xmlns="http://www.w3.org/2000/svg">
<g clip-path="url(#clip0_172_335)">
<path d="M216 366.989H2.52069e-05V319.443C-0.00309035 318.307 0.282653 317.19 0.830378 316.196C1.3781 315.201 2.1698 314.363 3.13096 313.759L104.406 249.717C105.482 249.041 106.728 248.682 108 248.682C109.272 248.682 110.518 249.041 111.594 249.717L212.869 313.759C213.83 314.363 214.622 315.201 215.17 316.196C215.717 317.19 216.003 318.307 216 319.443V366.989Z" fill="#3F3D56"/>
<path d="M702 405H330V403H700V254H702V405Z" fill="#3F3D56"/>
<path d="M96 195H94V44H500V46H96V195Z" fill="#3F3D56"/>
<path d="M181.582 370.154H34.4177C32.6346 370.152 30.9252 369.442 29.6644 368.182C28.4036 366.921 27.6944 365.211 27.6924 363.428V267.692C27.6944 265.909 28.4036 264.2 29.6644 262.939C30.9252 261.678 32.6346 260.969 34.4177 260.967H181.582C183.366 260.969 185.075 261.678 186.336 262.939C187.597 264.2 188.306 265.909 188.308 267.692V363.428C188.306 365.211 187.597 366.921 186.336 368.182C185.075 369.442 183.366 370.152 181.582 370.154Z" fill="#E6E6E6"/>
<path d="M87.4284 283.12H43.912C43.3399 283.121 42.7734 283.009 42.2446 282.791C41.7159 282.573 41.2354 282.252 40.8306 281.848C40.4258 281.444 40.1047 280.964 39.8856 280.435C39.6665 279.907 39.5537 279.341 39.5537 278.769C39.5537 278.197 39.6665 277.63 39.8856 277.102C40.1047 276.573 40.4258 276.093 40.8306 275.689C41.2354 275.285 41.7159 274.965 42.2446 274.746C42.7734 274.528 43.3399 274.416 43.912 274.417H87.4284C88.0005 274.416 88.567 274.528 89.0958 274.746C89.6245 274.965 90.105 275.285 90.5098 275.689C90.9146 276.093 91.2357 276.573 91.4548 277.102C91.6739 277.63 91.7867 278.197 91.7867 278.769C91.7867 279.341 91.6739 279.907 91.4548 280.435C91.2357 280.964 90.9146 281.444 90.5098 281.848C90.105 282.252 89.6245 282.573 89.0958 282.791C88.567 283.009 88.0005 283.121 87.4284 283.12Z" fill="white"/>
<path d="M170.901 305.275H44.3078C43.0488 305.275 41.8413 304.775 40.951 303.884C40.0607 302.994 39.5605 301.787 39.5605 300.528C39.5605 299.268 40.0607 298.061 40.951 297.171C41.8413 296.28 43.0488 295.78 44.3078 295.78H170.901C172.159 295.782 173.365 296.283 174.254 297.173C175.142 298.063 175.642 299.27 175.642 300.528C175.642 301.785 175.142 302.992 174.254 303.882C173.365 304.772 172.159 305.273 170.901 305.275Z" fill="white"/>
<path d="M171.341 329.495H44.7473C43.4882 329.495 42.2807 328.994 41.3904 328.104C40.5002 327.214 40 326.006 40 324.747C40 323.488 40.5002 322.281 41.3904 321.39C42.2807 320.5 43.4882 320 44.7473 320H171.341C172.6 320 173.807 320.5 174.697 321.39C175.588 322.281 176.088 323.488 176.088 324.747C176.088 326.006 175.588 327.214 174.697 328.104C173.807 328.994 172.6 329.495 171.341 329.495Z" fill="white"/>
<path d="M209.275 420.791H6.72528C4.94224 420.789 3.23282 420.08 1.97202 418.819C0.711216 417.558 0.0020089 415.849 0 414.066V327.033C0.0020089 325.25 0.711216 323.54 1.97202 322.28C3.23282 321.019 4.94224 320.31 6.72528 320.308L6.87904 320.339L95.996 357.935C99.7976 359.528 103.878 360.348 108 360.348C112.122 360.348 116.202 359.528 120.004 357.935L209.195 320.308H209.275C211.058 320.31 212.767 321.019 214.028 322.28C215.289 323.54 215.998 325.25 216 327.033V414.066C215.998 415.849 215.289 417.558 214.028 418.819C212.767 420.08 211.058 420.789 209.275 420.791Z" fill="#3F3D56"/>
<path d="M702 421C727.957 421 749 399.957 749 374C749 348.043 727.957 327 702 327C676.043 327 655 348.043 655 374C655 399.957 676.043 421 702 421Z" fill="white"/>
<path d="M693.049 399L678 379.834L686.752 373.092L693.876 382.165L717.95 357L726 364.553L693.049 399Z" fill="#EC4899"/>
<path d="M696.092 79.7217H626.946C625.652 79.7217 624.41 79.2075 623.495 78.2922C622.58 77.3768 622.065 76.1353 622.065 74.8409C622.065 73.5464 622.58 72.3049 623.495 71.3895C624.41 70.4742 625.652 69.96 626.946 69.96H696.092C697.387 69.96 698.628 70.4742 699.544 71.3895C700.459 72.3049 700.973 73.5464 700.973 74.8409C700.973 76.1353 700.459 77.3768 699.544 78.2922C698.628 79.2075 697.387 79.7217 696.092 79.7217Z" fill="white"/>
<path d="M704.535 143.53L599.492 110.782C597.361 110.115 595.647 108.8 594.728 107.125C593.808 105.451 593.758 103.553 594.588 101.849L639.281 10.387C640.116 8.68434 641.762 7.31568 643.859 6.58131C645.956 5.84693 648.331 5.80682 650.465 6.46977L755.508 39.2183C757.639 39.885 759.353 41.2 760.272 42.8746C761.192 44.5493 761.242 46.4469 760.412 48.1511L715.719 139.613C714.884 141.316 713.238 142.684 711.141 143.419C709.044 144.153 706.669 144.193 704.535 143.53Z" fill="#E6E6E6"/>
<path d="M711.962 46.6964L650.215 30.5674C648.578 30.1392 647.263 29.2936 646.557 28.2164C645.852 27.1392 645.815 25.9186 646.454 24.823C647.093 23.7274 648.356 22.8465 649.965 22.3739C651.574 21.9013 653.398 21.8757 655.035 22.3028L716.782 38.4318C718.419 38.8595 719.736 39.7051 720.442 40.7826C721.148 41.86 721.186 43.081 720.546 44.177C719.907 45.2729 718.644 46.1541 717.034 46.6266C715.424 47.099 713.599 47.1242 711.962 46.6964Z" fill="white"/>
<path d="M726.929 77.6626L639.225 52.4522C637.584 51.9795 636.265 51.0465 635.558 49.8581C634.852 48.6697 634.814 47.3233 635.455 46.1147C636.095 44.9061 637.361 43.9343 638.974 43.4128C640.587 42.8913 642.416 42.8628 644.057 43.3336L731.762 68.544C732.576 68.7771 733.32 69.1261 733.951 69.5711C734.582 70.016 735.087 70.5482 735.439 71.1371C735.79 71.7261 735.98 72.3603 735.999 73.0034C736.017 73.6465 735.863 74.286 735.545 74.8853C735.228 75.4845 734.753 76.0318 734.148 76.4958C733.543 76.9597 732.819 77.3313 732.019 77.5893C731.219 77.8472 730.358 77.9865 729.484 77.9991C728.611 78.0116 727.743 77.8973 726.929 77.6626Z" fill="white"/>
<path d="M742.054 79.3147H644.738L629.267 54.7008C628.681 53.7687 627.868 53.0005 626.904 52.468C625.941 51.9355 624.858 51.6562 623.757 51.6563H600.508C599.653 51.6562 598.807 51.8246 598.017 52.1516C597.228 52.4787 596.51 52.958 595.906 53.5623C595.302 54.1666 594.822 54.8841 594.495 55.6736C594.168 56.4632 594 57.3095 594 58.1641V174.492C594 175.347 594.168 176.193 594.495 176.983C594.822 177.772 595.302 178.49 595.906 179.094C596.51 179.698 597.228 180.178 598.017 180.505C598.807 180.832 599.653 181 600.508 181H742.054C742.909 181 743.755 180.832 744.544 180.505C745.334 180.178 746.051 179.698 746.656 179.094C747.26 178.49 747.739 177.772 748.066 176.983C748.394 176.193 748.562 175.347 748.562 174.492V85.8225C748.562 84.9679 748.394 84.1216 748.066 83.3321C747.739 82.5425 747.26 81.825 746.656 81.2207C746.051 80.6164 745.334 80.1371 744.544 79.81C743.755 79.483 742.909 79.3147 742.054 79.3147Z" fill="#3F3D56"/>
<path d="M391 367C468.32 367 531 304.32 531 227C531 149.68 468.32 87 391 87C313.68 87 251 149.68 251 227C251 304.32 313.68 367 391 367Z" fill="#EC4899"/>
<path opacity="0.2" d="M384.378 276.549C377.964 282.963 369.265 286.566 360.195 286.566C351.125 286.566 342.427 282.963 336.013 276.549C330.502 271.036 327.039 263.805 326.198 256.055C325.358 248.304 327.19 240.499 331.392 233.933L323.868 241.609C317.454 248.022 313.851 256.721 313.851 265.791C313.851 274.861 317.454 283.56 323.868 289.973C330.281 296.387 338.98 299.99 348.05 299.99C357.12 299.99 365.819 296.387 372.232 289.973L388.905 272.661L389.159 271.584L384.378 276.549Z" fill="black"/>
<path opacity="0.2" d="M400.26 169.593C407.757 164.487 416.975 162.568 425.886 164.259C434.797 165.949 442.672 171.11 447.777 178.607C452.165 185.051 454.219 192.801 453.6 200.572C452.981 208.343 449.727 215.67 444.375 221.338L453.198 215.199C460.694 210.093 465.855 202.219 467.546 193.308C469.236 184.396 467.318 175.179 462.212 167.682C457.106 160.186 449.232 155.024 440.32 153.334C431.409 151.643 422.192 153.562 414.695 158.668L395.087 172.569L394.637 173.579L400.26 169.593Z" fill="black"/>
<path d="M348.05 304.268C340.693 304.268 333.501 302.087 327.384 297.999C321.266 293.912 316.498 288.102 313.683 281.305C310.867 274.507 310.131 267.028 311.566 259.812C313.001 252.596 316.544 245.968 321.747 240.766L353.315 208.558C356.768 205.099 360.869 202.355 365.383 200.482C369.898 198.609 374.737 197.644 379.625 197.642C384.512 197.64 389.352 198.601 393.868 200.47C398.384 202.34 402.487 205.081 405.943 208.537C406.505 209.1 406.821 209.863 406.821 210.658C406.821 211.454 406.505 212.217 405.943 212.779C405.38 213.342 404.617 213.658 403.822 213.658C403.026 213.658 402.263 213.342 401.701 212.779C395.85 206.928 387.914 203.642 379.64 203.642C371.365 203.642 363.43 206.929 357.579 212.779C352.942 229.126 342.924 240.341 326.011 244.987C323.109 247.882 320.805 251.32 319.233 255.106C317.66 258.891 316.849 262.949 316.846 267.048C316.842 271.147 317.647 275.207 319.213 278.995C320.779 282.783 323.076 286.225 325.973 289.125C328.87 292.025 332.31 294.326 336.097 295.895C339.884 297.465 343.942 298.273 348.041 298.274C352.14 298.274 356.199 297.467 359.986 295.898C363.773 294.329 367.214 292.03 370.112 289.13C369.428 282.424 371.387 276.121 386.745 271.858C387.018 271.573 387.345 271.345 387.706 271.186C388.068 271.027 388.457 270.942 388.851 270.934C389.246 270.926 389.638 270.996 390.006 271.14C390.373 271.284 390.708 271.499 390.993 271.772C391.277 272.046 391.504 272.373 391.662 272.735C391.82 273.097 391.904 273.486 391.911 273.881C391.918 274.275 391.847 274.668 391.702 275.035C391.557 275.402 391.341 275.737 391.066 276.02L374.393 293.333C370.945 296.808 366.84 299.565 362.318 301.442C357.796 303.319 352.946 304.28 348.05 304.268Z" fill="white"/>
<path d="M399.301 258.706C394.414 258.72 389.573 257.763 385.058 255.893C380.543 254.023 376.444 251.276 372.998 247.81C372.435 247.248 372.119 246.485 372.119 245.689C372.119 244.893 372.435 244.13 372.998 243.568C373.561 243.005 374.324 242.689 375.12 242.689C375.915 242.689 376.678 243.005 377.241 243.568C380.138 246.465 383.577 248.763 387.362 250.331C391.147 251.899 395.204 252.706 399.301 252.706C403.399 252.706 407.455 251.899 411.241 250.331C415.026 248.764 418.465 246.465 421.362 243.568C425.36 219.484 441.66 216.085 455.829 209.102C458.726 206.205 461.024 202.766 462.592 198.981C464.16 195.195 464.967 191.138 464.967 187.041C464.967 182.944 464.16 178.887 462.592 175.102C461.024 171.317 458.726 167.877 455.829 164.98C452.932 162.083 449.492 159.785 445.707 158.217C441.922 156.649 437.865 155.842 433.767 155.842C429.67 155.842 425.613 156.649 421.828 158.217C418.043 159.785 414.603 162.083 411.706 164.98C407.765 176.351 403.895 187.857 392.157 184.53C391.878 184.809 391.547 185.03 391.183 185.18C390.819 185.331 390.429 185.409 390.035 185.409C389.24 185.409 388.477 185.093 387.914 184.53C387.352 183.968 387.036 183.205 387.036 182.409C387.036 181.613 387.352 180.85 387.914 180.288L407.464 160.738C410.918 157.284 415.019 154.544 419.532 152.674C424.045 150.805 428.882 149.843 433.767 149.843C438.652 149.843 443.489 150.805 448.003 152.674C452.516 154.544 456.616 157.284 460.071 160.738C463.525 164.192 466.265 168.293 468.134 172.806C470.004 177.319 470.966 182.156 470.966 187.041C470.966 191.926 470.004 196.763 468.134 201.276C466.265 205.79 463.525 209.89 460.071 213.345L425.605 247.811C422.158 251.276 418.059 254.023 413.544 255.893C409.029 257.764 404.188 258.72 399.301 258.706Z" fill="white"/>
<path d="M342.357 230.512C344.014 230.512 345.357 229.169 345.357 227.512C345.357 225.855 344.014 224.512 342.357 224.512C340.7 224.512 339.357 225.855 339.357 227.512C339.357 229.169 340.7 230.512 342.357 230.512Z" fill="#3F3D56"/>
<path d="M437.357 228.512C439.014 228.512 440.357 227.169 440.357 225.512C440.357 223.855 439.014 222.512 437.357 222.512C435.7 222.512 434.357 223.855 434.357 225.512C434.357 227.169 435.7 228.512 437.357 228.512Z" fill="#3F3D56"/>
</g>
<defs>
<clipPath id="clip0_172_335">
<rect width="760.519" height="442.078" fill="white"/>
</clipPath>
</defs>
</svg>
